<?xml version="1.0" encoding="utf-8" standalone="no"?>
<!DOCTYPE svg PUBLIC "-//W3C//DTD SVG 1.1//EN"
  "http://www.w3.org/Graphics/SVG/1.1/DTD/svg11.dtd">
<!-- Created with matplotlib (https://matplotlib.org/) -->
<svg height="345.6pt" version="1.1" viewBox="0 0 460.8 345.6" width="460.8pt" xmlns="http://www.w3.org/2000/svg" xmlns:xlink="http://www.w3.org/1999/xlink">
 <metadata>
  <rdf:RDF xmlns:cc="http://creativecommons.org/ns#" xmlns:dc="http://purl.org/dc/elements/1.1/" xmlns:rdf="http://www.w3.org/1999/02/22-rdf-syntax-ns#">
   <cc:Work>
    <dc:type rdf:resource="http://purl.org/dc/dcmitype/StillImage"/>
    <dc:date>2023-11-20T13:51:45.384404</dc:date>
    <dc:format>image/svg+xml</dc:format>
    <dc:creator>
     <cc:Agent>
      <dc:title>Matplotlib v3.3.4, https://matplotlib.org/</dc:title>
     </cc:Agent>
    </dc:creator>
   </cc:Work>
  </rdf:RDF>
 </metadata>
 <defs>
  <style type="text/css">*{stroke-linecap:butt;stroke-linejoin:round;}</style>
 </defs>
 <g id="figure_1">
  <g id="patch_1">
   <path d="M 0 345.6 
L 460.8 345.6 
L 460.8 0 
L 0 0 
z
" style="fill:#ffffff;"/>
  </g>
  <g id="axes_1">
   <g id="patch_2">
    <path d="M 57.6 307.584 
L 414.72 307.584 
L 414.72 41.472 
L 57.6 41.472 
z
" style="fill:#ffffff;"/>
   </g>
   <g id="matplotlib.axis_1">
    <g id="xtick_1">
     <g id="line2d_1">
      <defs>
       <path d="M 0 0 
L 0 3.5 
" id="m02e5dab824" style="stroke:#000000;stroke-width:0.8;"/>
      </defs>
      <g>
       <use style="stroke:#000000;stroke-width:0.8;" x="73.814196" xlink:href="#m02e5dab824" y="307.584"/>
      </g>
     </g>
     <g id="text_1">
      <text style="font-family:DejaVu Sans;font-size:10px;font-stretch:normal;font-style:normal;font-weight:normal;text-anchor:middle;" transform="rotate(-0, 73.814196, 322.182437)" x="73.814196" y="322.182437">0</text>
     </g>
    </g>
    <g id="xtick_2">
     <g id="line2d_2">
      <g>
       <use style="stroke:#000000;stroke-width:0.8;" x="125.290774" xlink:href="#m02e5dab824" y="307.584"/>
      </g>
     </g>
     <g id="text_2">
      <text style="font-family:DejaVu Sans;font-size:10px;font-stretch:normal;font-style:normal;font-weight:normal;text-anchor:middle;" transform="rotate(-0, 125.290774, 322.182437)" x="125.290774" y="322.182437">1</text>
     </g>
    </g>
    <g id="xtick_3">
     <g id="line2d_3">
      <g>
       <use style="stroke:#000000;stroke-width:0.8;" x="176.767353" xlink:href="#m02e5dab824" y="307.584"/>
      </g>
     </g>
     <g id="text_3">
      <text style="font-family:DejaVu Sans;font-size:10px;font-stretch:normal;font-style:normal;font-weight:normal;text-anchor:middle;" transform="rotate(-0, 176.767353, 322.182437)" x="176.767353" y="322.182437">2</text>
     </g>
    </g>
    <g id="xtick_4">
     <g id="line2d_4">
      <g>
       <use style="stroke:#000000;stroke-width:0.8;" x="228.243932" xlink:href="#m02e5dab824" y="307.584"/>
      </g>
     </g>
     <g id="text_4">
      <text style="font-family:DejaVu Sans;font-size:10px;font-stretch:normal;font-style:normal;font-weight:normal;text-anchor:middle;" transform="rotate(-0, 228.243932, 322.182437)" x="228.243932" y="322.182437">3</text>
     </g>
    </g>
    <g id="xtick_5">
     <g id="line2d_5">
      <g>
       <use style="stroke:#000000;stroke-width:0.8;" x="279.72051" xlink:href="#m02e5dab824" y="307.584"/>
      </g>
     </g>
     <g id="text_5">
      <text style="font-family:DejaVu Sans;font-size:10px;font-stretch:normal;font-style:normal;font-weight:normal;text-anchor:middle;" transform="rotate(-0, 279.72051, 322.182437)" x="279.72051" y="322.182437">4</text>
     </g>
    </g>
    <g id="xtick_6">
     <g id="line2d_6">
      <g>
       <use style="stroke:#000000;stroke-width:0.8;" x="331.197089" xlink:href="#m02e5dab824" y="307.584"/>
      </g>
     </g>
     <g id="text_6">
      <text style="font-family:DejaVu Sans;font-size:10px;font-stretch:normal;font-style:normal;font-weight:normal;text-anchor:middle;" transform="rotate(-0, 331.197089, 322.182437)" x="331.197089" y="322.182437">5</text>
     </g>
    </g>
    <g id="xtick_7">
     <g id="line2d_7">
      <g>
       <use style="stroke:#000000;stroke-width:0.8;" x="382.673668" xlink:href="#m02e5dab824" y="307.584"/>
      </g>
     </g>
     <g id="text_7">
      <text style="font-family:DejaVu Sans;font-size:10px;font-stretch:normal;font-style:normal;font-weight:normal;text-anchor:middle;" transform="rotate(-0, 382.673668, 322.182437)" x="382.673668" y="322.182437">6</text>
     </g>
    </g>
    <g id="text_8">
     <text style="font-family:DejaVu Sans;font-size:10px;font-stretch:normal;font-style:normal;font-weight:normal;text-anchor:middle;" transform="rotate(-0, 236.16, 335.860562)" x="236.16" y="335.860562">time(s)</text>
    </g>
    <g id="text_9">
     <text style="font-family:DejaVu Sans;font-size:10px;font-stretch:normal;font-style:normal;font-weight:normal;text-anchor:end;" transform="rotate(-0, 414.72, 334.860562)" x="414.72" y="334.860562">1e7</text>
    </g>
   </g>
   <g id="matplotlib.axis_2">
    <g id="ytick_1">
     <g id="line2d_8">
      <defs>
       <path d="M 0 0 
L -3.5 0 
" id="maa363b3cdc" style="stroke:#000000;stroke-width:0.8;"/>
      </defs>
      <g>
       <use style="stroke:#000000;stroke-width:0.8;" x="57.6" xlink:href="#maa363b3cdc" y="271.939425"/>
      </g>
     </g>
     <g id="text_10">
      <text style="font-family:DejaVu Sans;font-size:10px;font-stretch:normal;font-style:normal;font-weight:normal;text-anchor:end;" transform="rotate(-0, 50.6, 275.738644)" x="50.6" y="275.738644">−40000</text>
     </g>
    </g>
    <g id="ytick_2">
     <g id="line2d_9">
      <g>
       <use style="stroke:#000000;stroke-width:0.8;" x="57.6" xlink:href="#maa363b3cdc" y="221.949142"/>
      </g>
     </g>
     <g id="text_11">
      <text style="font-family:DejaVu Sans;font-size:10px;font-stretch:normal;font-style:normal;font-weight:normal;text-anchor:end;" transform="rotate(-0, 50.6, 225.74836)" x="50.6" y="225.74836">−20000</text>
     </g>
    </g>
    <g id="ytick_3">
     <g id="line2d_10">
      <g>
       <use style="stroke:#000000;stroke-width:0.8;" x="57.6" xlink:href="#maa363b3cdc" y="171.958859"/>
      </g>
     </g>
     <g id="text_12">
      <text style="font-family:DejaVu Sans;font-size:10px;font-stretch:normal;font-style:normal;font-weight:normal;text-anchor:end;" transform="rotate(-0, 50.6, 175.758077)" x="50.6" y="175.758077">0</text>
     </g>
    </g>
    <g id="ytick_4">
     <g id="line2d_11">
      <g>
       <use style="stroke:#000000;stroke-width:0.8;" x="57.6" xlink:href="#maa363b3cdc" y="121.968575"/>
      </g>
     </g>
     <g id="text_13">
      <text style="font-family:DejaVu Sans;font-size:10px;font-stretch:normal;font-style:normal;font-weight:normal;text-anchor:end;" transform="rotate(-0, 50.6, 125.767794)" x="50.6" y="125.767794">20000</text>
     </g>
    </g>
    <g id="ytick_5">
     <g id="line2d_12">
      <g>
       <use style="stroke:#000000;stroke-width:0.8;" x="57.6" xlink:href="#maa363b3cdc" y="71.978292"/>
      </g>
     </g>
     <g id="text_14">
      <text style="font-family:DejaVu Sans;font-size:10px;font-stretch:normal;font-style:normal;font-weight:normal;text-anchor:end;" transform="rotate(-0, 50.6, 75.777511)" x="50.6" y="75.777511">40000</text>
     </g>
    </g>
    <g id="text_15">
     <text style="font-family:DejaVu Sans;font-size:10px;font-stretch:normal;font-style:normal;font-weight:normal;text-anchor:middle;" transform="rotate(-90, 4.328125, 174.528)" x="4.328125" y="174.528">velocity(m/s)</text>
    </g>
   </g>
   <g id="line2d_13">
    <path clip-path="url(#p837b820789)" d="M 73.832727 53.582392 
L 74.110701 53.716029 
L 74.425737 54.152206 
L 74.8149 55.107106 
L 75.296721 56.921714 
L 75.889731 60.102092 
L 76.593931 65.203435 
L 77.40932 72.836718 
L 78.372962 84.098286 
L 79.503387 100.098676 
L 80.874723 122.899892 
L 82.690817 157.134434 
L 87.193988 243.581819 
L 88.528261 264.165661 
L 89.603092 277.516614 
L 90.492607 285.980462 
L 91.23387 291.063224 
L 91.82688 293.766929 
L 92.308701 295.04517 
L 92.660801 295.451157 
L 92.920243 295.463419 
L 93.179685 295.232067 
L 93.513253 294.57744 
L 93.920947 293.235072 
L 94.439831 290.675533 
L 95.069905 286.31852 
L 95.811167 279.515708 
L 96.700683 269.131953 
L 97.756982 254.019298 
L 99.072723 231.773673 
L 100.92588 196.237105 
L 104.94723 118.225746 
L 106.411224 94.613331 
L 107.597245 78.827822 
L 108.597949 68.24547 
L 109.450402 61.394326 
L 110.173133 57.229741 
L 110.766143 54.973883 
L 111.247964 53.9241 
L 111.600064 53.6041 
L 111.878037 53.618768 
L 112.156011 53.869187 
L 112.50811 54.524002 
L 112.952868 55.887583 
L 113.490283 58.32583 
L 114.138888 62.399293 
L 114.898683 68.695408 
L 115.788198 78.052698 
L 116.825966 91.465801 
L 118.067581 110.603176 
L 119.605701 137.984238 
L 122.088931 186.838932 
L 124.646288 235.729896 
L 126.09175 259.243947 
L 127.222176 274.250897 
L 128.148754 283.840981 
L 128.92708 289.783843 
L 129.575685 293.163544 
L 130.094569 294.800091 
L 130.483732 295.393704 
L 130.761705 295.482685 
L 131.021147 295.313397 
L 131.336184 294.780769 
L 131.725347 293.630107 
L 132.207167 291.459516 
L 132.800178 287.679551 
L 133.504377 281.662312 
L 134.338298 272.524657 
L 135.339003 258.969609 
L 136.562086 239.191861 
L 138.192864 208.890638 
L 143.511424 107.13362 
L 144.845697 87.192645 
L 145.957591 73.712116 
L 146.902701 64.797559 
L 147.699559 59.234311 
L 148.366695 56.009545 
L 148.904111 54.383543 
L 149.330337 53.717534 
L 149.645373 53.581394 
L 149.923347 53.712851 
L 150.238383 54.146558 
L 150.627546 55.098414 
L 151.109367 56.90928 
L 151.702377 60.085119 
L 152.406577 65.181215 
L 153.221966 72.808699 
L 154.185608 84.063926 
L 155.316033 100.057792 
L 156.687369 122.852761 
L 158.503463 157.08247 
L 163.006634 243.53787 
L 164.340907 264.129455 
L 165.415738 277.488074 
L 166.305253 285.959024 
L 167.046516 291.048091 
L 167.639526 293.75701 
L 168.121347 295.039555 
L 168.473447 295.448704 
L 168.732889 295.463297 
L 168.992331 295.23427 
L 169.325899 294.582617 
L 169.733593 293.243845 
L 170.252477 290.688793 
L 170.882551 286.337039 
L 171.623813 279.54007 
L 172.513329 269.162706 
L 173.569628 254.05658 
L 174.885369 231.817214 
L 176.738526 196.285547 
L 180.759876 118.268794 
L 182.22387 94.64958 
L 183.409891 78.857074 
L 184.410595 68.267985 
L 185.263048 61.410633 
L 185.985779 57.24053 
L 186.578789 54.980024 
L 187.06061 53.926413 
L 187.41271 53.603598 
L 187.690683 53.616041 
L 187.968657 53.864236 
L 188.320756 54.516243 
L 188.765514 55.876302 
L 189.302929 58.310354 
L 189.951534 62.378883 
L 190.711329 68.669458 
L 191.600844 78.020697 
L 192.638612 91.427483 
L 193.880227 110.558588 
L 195.418347 137.9342 
L 197.901577 186.786389 
L 200.458934 235.68354 
L 201.904396 259.204882 
L 203.034822 274.219203 
L 203.9614 283.816244 
L 204.739726 289.765458 
L 205.388331 293.150723 
L 205.907215 294.791847 
L 206.296378 295.388939 
L 206.574351 295.480421 
L 206.833793 295.313472 
L 207.14883 294.783683 
L 207.537993 293.636513 
L 208.019814 291.470197 
L 208.612824 287.695374 
L 209.317023 281.683991 
L 210.150944 272.552795 
L 211.151649 259.004613 
L 212.374732 239.233643 
L 214.00551 208.938215 
L 219.342602 106.87099 
L 220.676875 86.974881 
L 221.788769 73.538424 
L 222.733879 64.665007 
L 223.530736 59.138402 
L 224.197873 55.945292 
L 224.735288 54.34522 
L 225.142983 53.716474 
L 225.458019 53.577868 
L 225.735993 53.707157 
L 226.051029 54.13842 
L 226.440192 55.087282 
L 226.922013 56.894492 
L 227.515023 60.065934 
L 228.219223 65.156996 
L 229.034612 72.778966 
L 229.998254 84.028207 
L 231.128679 100.015937 
L 232.500015 122.804994 
L 234.316109 157.029941 
L 238.81928 243.49178 
L 240.153553 264.090546 
L 241.228384 277.456514 
L 242.117899 285.934439 
L 242.859162 291.029813 
L 243.452172 293.744024 
L 243.933993 295.030982 
L 244.286093 295.443399 
L 244.545535 295.460414 
L 244.804977 295.233813 
L 245.120013 294.631819 
L 245.527708 293.323831 
L 246.02806 290.913373 
L 246.639602 286.791188 
L 247.380865 280.13292 
L 248.251848 270.143611 
L 249.289616 255.526543 
L 250.568294 234.191595 
L 252.328793 200.755856 
L 256.757838 115.102746 
L 258.184769 92.530985 
L 259.352258 77.362476 
L 260.334431 67.276763 
L 261.168351 60.803432 
L 261.872551 56.907994 
L 262.44703 54.825855 
L 262.910319 53.874446 
L 263.262419 53.588741 
L 263.540392 53.630493 
L 263.836897 53.934826 
L 264.207529 54.691305 
L 264.670818 56.220897 
L 265.226765 58.902928 
L 265.893901 63.315447 
L 266.672227 70.054488 
L 267.580274 79.966582 
L 268.655105 94.311135 
L 269.933783 114.561578 
L 271.564561 144.218025 
L 277.513195 256.11092 
L 278.680684 272.185148 
L 279.644325 282.604353 
L 280.441183 289.018411 
L 281.108319 292.742103 
L 281.645734 294.606384 
L 282.053429 295.331043 
L 282.349934 295.481136 
L 282.590844 295.368785 
L 282.88735 294.942377 
L 283.257981 293.9641 
L 283.72127 292.052212 
L 284.295749 288.638438 
L 284.981417 283.103707 
L 285.796806 274.571611 
L 286.760447 262.008206 
L 287.927936 243.721471 
L 289.447525 216.155457 
L 292.412576 157.168801 
L 294.543706 117.200417 
L 295.989168 94.021473 
L 297.175189 78.347776 
L 298.175893 67.871299 
L 299.028346 61.116594 
L 299.751077 57.037006 
L 300.344087 54.852379 
L 300.807376 53.886123 
L 301.159476 53.589092 
L 301.437449 53.621899 
L 301.733955 53.916703 
L 302.086054 54.614192 
L 302.530812 56.031267 
L 303.086759 58.634771 
L 303.735364 62.818133 
L 304.51369 69.414406 
L 305.421737 79.17077 
L 306.478036 93.08325 
L 307.738183 112.812133 
L 309.331898 141.537391 
L 312.204291 198.318372 
L 314.372484 239.010861 
L 315.762352 261.166384 
L 316.874246 275.562574 
L 317.782293 284.669264 
L 318.542087 290.252696 
L 319.17216 293.387138 
L 319.672513 294.877303 
L 320.043144 295.401564 
L 320.321118 295.468939 
L 320.580559 295.279486 
L 320.895596 294.722446 
L 321.303291 293.472142 
L 321.803643 291.131269 
L 322.415185 287.091501 
L 323.137916 280.71337 
L 323.990368 271.105882 
L 325.009604 256.97293 
L 326.269751 236.207247 
L 327.974655 204.097582 
L 332.7558 111.991019 
L 334.145668 90.457857 
L 335.294625 75.90776 
L 336.258266 66.31679 
L 337.073655 60.218247 
L 337.759323 56.589009 
L 338.333802 54.630699 
L 338.77856 53.801543 
L 339.112128 53.575367 
L 339.390101 53.646343 
L 339.686606 53.981796 
L 340.057238 54.777019 
L 340.520527 56.354635 
L 341.076474 59.09342 
L 341.743611 63.572289 
L 342.521936 70.385515 
L 343.448515 80.604218 
L 344.523346 95.080375 
L 345.820556 115.777599 
L 347.469865 145.942744 
L 353.19612 254.075214 
L 354.400672 271.003734 
L 355.382845 281.87385 
L 356.198234 288.61631 
L 356.86537 292.473626 
L 357.402786 294.448686 
L 357.829012 295.281108 
L 358.144048 295.475053 
L 358.384959 295.381007 
L 358.662932 295.011632 
L 359.033564 294.085974 
L 359.496853 292.239025 
L 360.0528 289.029138 
L 360.719936 283.792673 
L 361.516794 275.665185 
L 362.461904 263.613308 
L 363.610861 245.933324 
L 365.074855 219.730684 
L 367.558085 170.527967 
L 370.078378 122.126862 
L 371.597967 97.072425 
L 372.821051 80.373171 
L 373.840287 69.273041 
L 374.711271 62.023381 
L 375.452533 57.571032 
L 376.064075 55.125989 
L 376.545896 53.995191 
L 376.916527 53.60625 
L 377.194501 53.589679 
L 377.472474 53.808899 
L 377.806042 54.382552 
L 378.232269 55.606242 
L 378.751152 57.831989 
L 379.381226 61.602728 
L 380.122489 67.495796 
L 380.993472 76.339896 
L 382.012708 89.130882 
L 383.21726 107.246422 
L 384.699786 133.130664 
L 386.886511 175.706088 
L 389.962751 235.066866 
L 391.408214 258.687206 
L 392.538639 273.803119 
L 393.483749 283.663343 
L 394.262075 289.652985 
L 394.91068 293.07362 
L 395.429564 294.743775 
L 395.818727 295.362893 
L 396.0967 295.470167 
L 396.337611 295.336908 
L 396.634116 294.88483 
L 397.004747 293.874675 
L 397.486568 291.829693 
L 398.061047 288.331746 
L 398.487273 285.01317 
L 398.487273 285.01317 
" style="fill:none;stroke:#1f77b4;stroke-linecap:square;stroke-width:1.5;"/>
   </g>
   <g id="patch_3">
    <path d="M 57.6 307.584 
L 57.6 41.472 
" style="fill:none;stroke:#000000;stroke-linecap:square;stroke-linejoin:miter;stroke-width:0.8;"/>
   </g>
   <g id="patch_4">
    <path d="M 414.72 307.584 
L 414.72 41.472 
" style="fill:none;stroke:#000000;stroke-linecap:square;stroke-linejoin:miter;stroke-width:0.8;"/>
   </g>
   <g id="patch_5">
    <path d="M 57.6 307.584 
L 414.72 307.584 
" style="fill:none;stroke:#000000;stroke-linecap:square;stroke-linejoin:miter;stroke-width:0.8;"/>
   </g>
   <g id="patch_6">
    <path d="M 57.6 41.472 
L 414.72 41.472 
" style="fill:none;stroke:#000000;stroke-linecap:square;stroke-linejoin:miter;stroke-width:0.8;"/>
   </g>
   <g id="text_16">
    <text style="font-family:DejaVu Sans;font-size:12px;font-stretch:normal;font-style:normal;font-weight:normal;text-anchor:middle;" transform="rotate(-0, 236.16, 35.472)" x="236.16" y="35.472">Radial velocity of Mercury</text>
   </g>
  </g>
 </g>
 <defs>
  <clipPath id="p837b820789">
   <rect height="266.112" width="357.12" x="57.6" y="41.472"/>
  </clipPath>
 </defs>
</svg>
