<?xml version="1.0" encoding="utf-8" standalone="no"?>
<!DOCTYPE svg PUBLIC "-//W3C//DTD SVG 1.1//EN"
  "http://www.w3.org/Graphics/SVG/1.1/DTD/svg11.dtd">
<!-- Created with matplotlib (https://matplotlib.org/) -->
<svg height="345.6pt" version="1.1" viewBox="0 0 460.8 345.6" width="460.8pt" xmlns="http://www.w3.org/2000/svg" xmlns:xlink="http://www.w3.org/1999/xlink">
 <metadata>
  <rdf:RDF xmlns:cc="http://creativecommons.org/ns#" xmlns:dc="http://purl.org/dc/elements/1.1/" xmlns:rdf="http://www.w3.org/1999/02/22-rdf-syntax-ns#">
   <cc:Work>
    <dc:type rdf:resource="http://purl.org/dc/dcmitype/StillImage"/>
    <dc:date>2023-11-04T09:17:44.897911</dc:date>
    <dc:format>image/svg+xml</dc:format>
    <dc:creator>
     <cc:Agent>
      <dc:title>Matplotlib v3.3.4, https://matplotlib.org/</dc:title>
     </cc:Agent>
    </dc:creator>
   </cc:Work>
  </rdf:RDF>
 </metadata>
 <defs>
  <style type="text/css">*{stroke-linecap:butt;stroke-linejoin:round;}</style>
 </defs>
 <g id="figure_1">
  <g id="patch_1">
   <path d="M 0 345.6 
L 460.8 345.6 
L 460.8 0 
L 0 0 
z
" style="fill:#ffffff;"/>
  </g>
  <g id="axes_1">
   <g id="patch_2">
    <path d="M 57.6 307.584 
L 414.72 307.584 
L 414.72 41.472 
L 57.6 41.472 
z
" style="fill:#ffffff;"/>
   </g>
   <g id="matplotlib.axis_1">
    <g id="xtick_1">
     <g id="line2d_1">
      <defs>
       <path d="M 0 0 
L 0 3.5 
" id="mfc98980e1d" style="stroke:#000000;stroke-width:0.8;"/>
      </defs>
      <g>
       <use style="stroke:#000000;stroke-width:0.8;" x="73.814196" xlink:href="#mfc98980e1d" y="307.584"/>
      </g>
     </g>
     <g id="text_1">
      <text style="font-family:DejaVu Sans;font-size:10px;font-stretch:normal;font-style:normal;font-weight:normal;text-anchor:middle;" transform="rotate(-0, 73.814196, 322.182437)" x="73.814196" y="322.182437">0</text>
     </g>
    </g>
    <g id="xtick_2">
     <g id="line2d_2">
      <g>
       <use style="stroke:#000000;stroke-width:0.8;" x="125.290774" xlink:href="#mfc98980e1d" y="307.584"/>
      </g>
     </g>
     <g id="text_2">
      <text style="font-family:DejaVu Sans;font-size:10px;font-stretch:normal;font-style:normal;font-weight:normal;text-anchor:middle;" transform="rotate(-0, 125.290774, 322.182437)" x="125.290774" y="322.182437">1</text>
     </g>
    </g>
    <g id="xtick_3">
     <g id="line2d_3">
      <g>
       <use style="stroke:#000000;stroke-width:0.8;" x="176.767353" xlink:href="#mfc98980e1d" y="307.584"/>
      </g>
     </g>
     <g id="text_3">
      <text style="font-family:DejaVu Sans;font-size:10px;font-stretch:normal;font-style:normal;font-weight:normal;text-anchor:middle;" transform="rotate(-0, 176.767353, 322.182437)" x="176.767353" y="322.182437">2</text>
     </g>
    </g>
    <g id="xtick_4">
     <g id="line2d_4">
      <g>
       <use style="stroke:#000000;stroke-width:0.8;" x="228.243932" xlink:href="#mfc98980e1d" y="307.584"/>
      </g>
     </g>
     <g id="text_4">
      <text style="font-family:DejaVu Sans;font-size:10px;font-stretch:normal;font-style:normal;font-weight:normal;text-anchor:middle;" transform="rotate(-0, 228.243932, 322.182437)" x="228.243932" y="322.182437">3</text>
     </g>
    </g>
    <g id="xtick_5">
     <g id="line2d_5">
      <g>
       <use style="stroke:#000000;stroke-width:0.8;" x="279.72051" xlink:href="#mfc98980e1d" y="307.584"/>
      </g>
     </g>
     <g id="text_5">
      <text style="font-family:DejaVu Sans;font-size:10px;font-stretch:normal;font-style:normal;font-weight:normal;text-anchor:middle;" transform="rotate(-0, 279.72051, 322.182437)" x="279.72051" y="322.182437">4</text>
     </g>
    </g>
    <g id="xtick_6">
     <g id="line2d_6">
      <g>
       <use style="stroke:#000000;stroke-width:0.8;" x="331.197089" xlink:href="#mfc98980e1d" y="307.584"/>
      </g>
     </g>
     <g id="text_6">
      <text style="font-family:DejaVu Sans;font-size:10px;font-stretch:normal;font-style:normal;font-weight:normal;text-anchor:middle;" transform="rotate(-0, 331.197089, 322.182437)" x="331.197089" y="322.182437">5</text>
     </g>
    </g>
    <g id="xtick_7">
     <g id="line2d_7">
      <g>
       <use style="stroke:#000000;stroke-width:0.8;" x="382.673668" xlink:href="#mfc98980e1d" y="307.584"/>
      </g>
     </g>
     <g id="text_7">
      <text style="font-family:DejaVu Sans;font-size:10px;font-stretch:normal;font-style:normal;font-weight:normal;text-anchor:middle;" transform="rotate(-0, 382.673668, 322.182437)" x="382.673668" y="322.182437">6</text>
     </g>
    </g>
    <g id="text_8">
     <text style="font-family:DejaVu Sans;font-size:10px;font-stretch:normal;font-style:normal;font-weight:normal;text-anchor:middle;" transform="rotate(-0, 236.16, 335.860562)" x="236.16" y="335.860562">time(s)</text>
    </g>
    <g id="text_9">
     <text style="font-family:DejaVu Sans;font-size:10px;font-stretch:normal;font-style:normal;font-weight:normal;text-anchor:end;" transform="rotate(-0, 414.72, 334.860562)" x="414.72" y="334.860562">1e7</text>
    </g>
   </g>
   <g id="matplotlib.axis_2">
    <g id="ytick_1">
     <g id="line2d_8">
      <defs>
       <path d="M 0 0 
L -3.5 0 
" id="mb7d07a392c" style="stroke:#000000;stroke-width:0.8;"/>
      </defs>
      <g>
       <use style="stroke:#000000;stroke-width:0.8;" x="57.6" xlink:href="#mb7d07a392c" y="272.459242"/>
      </g>
     </g>
     <g id="text_10">
      <text style="font-family:DejaVu Sans;font-size:10px;font-stretch:normal;font-style:normal;font-weight:normal;text-anchor:end;" transform="rotate(-0, 50.6, 276.258461)" x="50.6" y="276.258461">−40000</text>
     </g>
    </g>
    <g id="ytick_2">
     <g id="line2d_9">
      <g>
       <use style="stroke:#000000;stroke-width:0.8;" x="57.6" xlink:href="#mb7d07a392c" y="222.346778"/>
      </g>
     </g>
     <g id="text_11">
      <text style="font-family:DejaVu Sans;font-size:10px;font-stretch:normal;font-style:normal;font-weight:normal;text-anchor:end;" transform="rotate(-0, 50.6, 226.145997)" x="50.6" y="226.145997">−20000</text>
     </g>
    </g>
    <g id="ytick_3">
     <g id="line2d_10">
      <g>
       <use style="stroke:#000000;stroke-width:0.8;" x="57.6" xlink:href="#mb7d07a392c" y="172.234314"/>
      </g>
     </g>
     <g id="text_12">
      <text style="font-family:DejaVu Sans;font-size:10px;font-stretch:normal;font-style:normal;font-weight:normal;text-anchor:end;" transform="rotate(-0, 50.6, 176.033533)" x="50.6" y="176.033533">0</text>
     </g>
    </g>
    <g id="ytick_4">
     <g id="line2d_11">
      <g>
       <use style="stroke:#000000;stroke-width:0.8;" x="57.6" xlink:href="#mb7d07a392c" y="122.12185"/>
      </g>
     </g>
     <g id="text_13">
      <text style="font-family:DejaVu Sans;font-size:10px;font-stretch:normal;font-style:normal;font-weight:normal;text-anchor:end;" transform="rotate(-0, 50.6, 125.921069)" x="50.6" y="125.921069">20000</text>
     </g>
    </g>
    <g id="ytick_5">
     <g id="line2d_12">
      <g>
       <use style="stroke:#000000;stroke-width:0.8;" x="57.6" xlink:href="#mb7d07a392c" y="72.009387"/>
      </g>
     </g>
     <g id="text_14">
      <text style="font-family:DejaVu Sans;font-size:10px;font-stretch:normal;font-style:normal;font-weight:normal;text-anchor:end;" transform="rotate(-0, 50.6, 75.808605)" x="50.6" y="75.808605">40000</text>
     </g>
    </g>
    <g id="text_15">
     <text style="font-family:DejaVu Sans;font-size:10px;font-stretch:normal;font-style:normal;font-weight:normal;text-anchor:middle;" transform="rotate(-90, 4.328125, 174.528)" x="4.328125" y="174.528">velocity(m/s)</text>
    </g>
   </g>
   <g id="line2d_13">
    <path clip-path="url(#p01854a0ac1)" d="M 73.832727 53.568 
L 74.110701 53.694103 
L 74.425737 54.122597 
L 74.8149 55.069508 
L 75.296721 56.876953 
L 75.889731 60.053388 
L 76.593931 65.158059 
L 77.40932 72.807121 
L 78.372962 84.104177 
L 79.503387 100.167013 
L 80.874723 123.063682 
L 82.709348 157.788128 
L 87.082799 241.964163 
L 88.435603 263.012475 
L 89.510434 276.53121 
L 90.418481 285.334049 
L 91.159744 290.567632 
L 91.771285 293.493242 
L 92.271638 294.925088 
L 92.642269 295.420904 
L 92.920243 295.476223 
L 93.179685 295.283283 
L 93.494721 294.732742 
L 93.902416 293.50943 
L 94.402768 291.232115 
L 95.01431 287.318015 
L 95.737041 281.158624 
L 96.608025 271.682671 
L 97.645793 257.785175 
L 98.924471 237.452095 
L 100.647907 206.159592 
L 105.669962 112.795226 
L 107.078361 91.747314 
L 108.24585 77.415611 
L 109.246554 67.717877 
L 110.080475 61.61475 
L 110.784675 57.930688 
L 111.377685 55.901469 
L 111.840974 55.0091 
L 112.193074 54.740269 
L 112.471047 54.778361 
L 112.767552 55.062422 
L 113.138184 55.770119 
L 113.601473 57.202874 
L 114.15742 59.717868 
L 114.824556 63.860561 
L 115.602882 70.196742 
L 116.510929 79.533459 
L 117.567229 92.823211 
L 118.827375 111.664659 
L 120.402558 138.803786 
L 122.978446 187.746246 
L 125.49874 234.177179 
L 126.962734 257.244182 
L 128.130222 272.338365 
L 129.093864 282.105208 
L 129.890721 288.12915 
L 130.557858 291.651981 
L 131.095273 293.447824 
L 131.521499 294.200304 
L 131.836536 294.372316 
L 132.095978 294.268701 
L 132.392483 293.879754 
L 132.763115 292.990207 
L 133.226404 291.255259 
L 133.800882 288.162475 
L 134.48655 283.154522 
L 135.301939 275.440033 
L 136.265581 264.078241 
L 137.43307 247.510567 
L 138.915595 223.060319 
L 141.250573 180.277759 
L 144.252687 126.110772 
L 145.846402 101.300014 
L 147.143612 84.394876 
L 148.236974 72.902194 
L 149.163553 65.351759 
L 149.941878 60.659822 
L 150.609015 57.882054 
L 151.14643 56.496807 
L 151.572656 55.944767 
L 151.887693 55.848902 
L 152.184198 56.001324 
L 152.517766 56.453769 
L 152.943992 57.463369 
L 153.462876 59.34112 
L 154.074418 62.456266 
L 154.797149 67.367157 
L 155.649601 74.806975 
L 156.631775 85.458036 
L 157.780732 100.477209 
L 159.170599 121.769629 
L 160.986693 153.329826 
L 166.101406 244.318379 
L 167.435679 263.141163 
L 168.529041 275.624944 
L 169.437088 283.64399 
L 170.196883 288.565573 
L 170.826956 291.348279 
L 171.327308 292.697134 
L 171.716471 293.213066 
L 172.012976 293.291874 
L 172.29095 293.119057 
L 172.624518 292.597673 
L 173.032213 291.498699 
L 173.532565 289.465411 
L 174.144107 285.980495 
L 174.866838 280.500365 
L 175.737821 272.06053 
L 176.757058 259.887774 
L 177.998673 242.232127 
L 179.610919 215.866113 
L 182.705691 160.605759 
L 184.985074 121.991447 
L 186.541726 99.188852 
L 187.820404 83.54576 
L 188.895235 72.93886 
L 189.821813 65.84556 
L 190.600139 61.441012 
L 191.267276 58.834362 
L 191.804691 57.534528 
L 192.230917 57.016333 
L 192.564486 56.928514 
L 192.860991 57.084897 
L 193.21309 57.556892 
L 193.639316 58.542733 
L 194.1582 60.351239 
L 194.788274 63.433477 
L 195.529536 68.275793 
L 196.381989 75.410034 
L 197.382693 85.797802 
L 198.550182 100.413109 
L 199.94005 120.799141 
L 201.737612 150.722749 
L 207.334145 246.40472 
L 208.649887 263.93606 
L 209.724718 275.525129 
L 210.632765 283.106028 
L 211.392559 287.759835 
L 212.022632 290.395185 
L 212.541516 291.7111 
L 212.930679 292.185852 
L 213.227184 292.251888 
L 213.505158 292.081719 
L 213.838726 291.582107 
L 214.24642 290.536982 
L 214.765304 288.524983 
L 215.376846 285.196389 
L 216.118109 279.827343 
L 216.989093 271.765446 
L 218.02686 259.924824 
L 219.268475 243.043934 
L 220.86219 218.109511 
L 223.586331 171.293168 
L 226.273408 126.529036 
L 227.904186 102.91309 
L 229.238459 86.643173 
L 230.368885 75.4331 
L 231.332526 67.944144 
L 232.166447 63.097928 
L 232.852115 60.292905 
L 233.426594 58.780421 
L 233.889883 58.123483 
L 234.241983 57.962077 
L 234.557019 58.06541 
L 234.890588 58.429722 
L 235.298282 59.230115 
L 235.798634 60.743236 
L 236.410176 63.378275 
L 237.114376 67.462724 
L 237.948296 73.707845 
L 238.911938 82.732268 
L 240.023832 95.367539 
L 241.339573 113.019402 
L 242.970351 138.125536 
L 245.453582 180.316236 
L 248.474227 230.802064 
L 250.030879 253.185618 
L 251.272494 268.024915 
L 252.29173 277.749644 
L 253.162714 284.088208 
L 253.885445 287.872279 
L 254.478455 289.938874 
L 254.960276 290.915306 
L 255.330907 291.23419 
L 255.627413 291.21819 
L 255.923918 290.961608 
L 256.294549 290.304127 
L 256.757838 288.960902 
L 257.313785 286.597049 
L 257.980922 282.70806 
L 258.777779 276.626724 
L 259.704358 267.728877 
L 260.816252 254.743167 
L 262.169056 236.131603 
L 263.948087 208.32146 
L 269.878189 113.076851 
L 271.342182 94.320727 
L 272.565266 81.310539 
L 273.621565 72.294682 
L 274.529612 66.323337 
L 275.307938 62.579035 
L 275.956543 60.456131 
L 276.475427 59.421376 
L 276.883121 59.025576 
L 277.21669 58.975775 
L 277.531726 59.155369 
L 277.902358 59.648179 
L 278.347115 60.6399 
L 278.884531 62.416779 
L 279.533136 65.393493 
L 280.29293 70.012656 
L 281.163914 76.757431 
L 282.18315 86.507715 
L 283.350639 99.926895 
L 284.740506 118.609074 
L 286.501005 145.511984 
L 289.873751 201.444339 
L 292.079007 235.906137 
L 293.580064 256.057292 
L 294.784616 269.416231 
L 295.785321 278.23303 
L 296.637773 283.932016 
L 297.360504 287.376373 
L 297.953515 289.218524 
L 298.416804 290.029844 
L 298.768904 290.275572 
L 299.065409 290.23377 
L 299.380445 289.940677 
L 299.769608 289.226667 
L 300.251429 287.808989 
L 300.825908 285.360539 
L 301.511576 281.390335 
L 302.326965 275.254183 
L 303.272075 266.357583 
L 304.4025 253.479884 
L 305.773836 235.152657 
L 307.58993 207.64938 
L 313.594158 114.301834 
L 315.095215 95.600149 
L 316.355362 82.537474 
L 317.430193 73.567052 
L 318.356771 67.571048 
L 319.153629 63.765513 
L 319.820765 61.569291 
L 320.358181 60.467421 
L 320.802938 60.009847 
L 321.155038 59.940539 
L 321.488606 60.113906 
L 321.859238 60.579009 
L 322.322527 61.562367 
L 322.878474 63.327838 
L 323.527079 66.184468 
L 324.286873 70.59903 
L 325.176388 77.181772 
L 326.195625 86.500228 
L 327.381645 99.533314 
L 328.771513 117.41339 
L 330.51348 142.919562 
L 333.385873 188.884299 
L 336.072951 230.546219 
L 337.666665 251.947404 
L 338.926812 266.090608 
L 339.983112 275.63086 
L 340.891158 281.937014 
L 341.650953 285.771472 
L 342.281026 287.914576 
L 342.781378 288.932958 
L 343.170541 289.302925 
L 343.485578 289.331236 
L 343.800615 289.117194 
L 344.171246 288.556365 
L 344.616004 287.445932 
L 345.171951 285.396588 
L 345.839087 281.991554 
L 346.617413 276.767355 
L 347.52546 269.074846 
L 348.600291 257.956679 
L 349.897501 242.056818 
L 351.528279 219.126592 
L 354.122698 178.996828 
L 357.310128 130.492109 
L 359.052095 107.302695 
L 360.460495 91.328755 
L 361.665046 80.042835 
L 362.702814 72.277728 
L 363.59233 67.164316 
L 364.352124 63.971774 
L 365.000729 62.124888 
L 365.519613 61.238316 
L 365.945839 60.905898 
L 366.297939 60.901392 
L 366.650038 61.141367 
L 367.057733 61.724186 
L 367.539554 62.833179 
L 368.114032 64.74565 
L 368.7997 67.85684 
L 369.596558 72.57905 
L 370.523136 79.510372 
L 371.579436 89.193464 
L 372.802519 102.56814 
L 374.247981 120.952331 
L 376.064075 147.073652 
L 379.714794 203.795615 
L 381.901519 235.638891 
L 383.421108 254.719905 
L 384.662723 267.66612 
L 385.700491 276.307398 
L 386.590006 281.961773 
L 387.331269 285.359853 
L 387.94281 287.232092 
L 388.443163 288.126318 
L 388.832326 288.422035 
L 389.147362 288.404765 
L 389.480931 288.136606 
L 389.870093 287.500441 
L 390.351914 286.234791 
L 390.926393 284.045635 
L 391.612061 280.490323 
L 392.42745 274.98445 
L 393.37256 266.979891 
L 394.484454 255.555443 
L 395.818727 239.420402 
L 397.523631 215.909545 
L 398.487273 201.671798 
L 398.487273 201.671798 
" style="fill:none;stroke:#1f77b4;stroke-linecap:square;stroke-width:1.5;"/>
   </g>
   <g id="patch_3">
    <path d="M 57.6 307.584 
L 57.6 41.472 
" style="fill:none;stroke:#000000;stroke-linecap:square;stroke-linejoin:miter;stroke-width:0.8;"/>
   </g>
   <g id="patch_4">
    <path d="M 414.72 307.584 
L 414.72 41.472 
" style="fill:none;stroke:#000000;stroke-linecap:square;stroke-linejoin:miter;stroke-width:0.8;"/>
   </g>
   <g id="patch_5">
    <path d="M 57.6 307.584 
L 414.72 307.584 
" style="fill:none;stroke:#000000;stroke-linecap:square;stroke-linejoin:miter;stroke-width:0.8;"/>
   </g>
   <g id="patch_6">
    <path d="M 57.6 41.472 
L 414.72 41.472 
" style="fill:none;stroke:#000000;stroke-linecap:square;stroke-linejoin:miter;stroke-width:0.8;"/>
   </g>
   <g id="text_16">
    <text style="font-family:DejaVu Sans;font-size:12px;font-stretch:normal;font-style:normal;font-weight:normal;text-anchor:middle;" transform="rotate(-0, 236.16, 35.472)" x="236.16" y="35.472">Radial velocity of Mercury</text>
   </g>
  </g>
 </g>
 <defs>
  <clipPath id="p01854a0ac1">
   <rect height="266.112" width="357.12" x="57.6" y="41.472"/>
  </clipPath>
 </defs>
</svg>
