<?xml version="1.0" encoding="utf-8" standalone="no"?>
<!DOCTYPE svg PUBLIC "-//W3C//DTD SVG 1.1//EN"
  "http://www.w3.org/Graphics/SVG/1.1/DTD/svg11.dtd">
<!-- Created with matplotlib (https://matplotlib.org/) -->
<svg height="345.6pt" version="1.1" viewBox="0 0 460.8 345.6" width="460.8pt" xmlns="http://www.w3.org/2000/svg" xmlns:xlink="http://www.w3.org/1999/xlink">
 <metadata>
  <rdf:RDF xmlns:cc="http://creativecommons.org/ns#" xmlns:dc="http://purl.org/dc/elements/1.1/" xmlns:rdf="http://www.w3.org/1999/02/22-rdf-syntax-ns#">
   <cc:Work>
    <dc:type rdf:resource="http://purl.org/dc/dcmitype/StillImage"/>
    <dc:date>2023-11-20T13:52:21.459368</dc:date>
    <dc:format>image/svg+xml</dc:format>
    <dc:creator>
     <cc:Agent>
      <dc:title>Matplotlib v3.3.4, https://matplotlib.org/</dc:title>
     </cc:Agent>
    </dc:creator>
   </cc:Work>
  </rdf:RDF>
 </metadata>
 <defs>
  <style type="text/css">*{stroke-linecap:butt;stroke-linejoin:round;}</style>
 </defs>
 <g id="figure_1">
  <g id="patch_1">
   <path d="M 0 345.6 
L 460.8 345.6 
L 460.8 0 
L 0 0 
z
" style="fill:#ffffff;"/>
  </g>
  <g id="patch_2">
   <path d="M 103.104 307.584 
L 369.216 307.584 
L 369.216 41.472 
L 103.104 41.472 
z
" style="fill:#ffffff;"/>
  </g>
  <g id="pane3d_1">
   <g id="patch_3">
    <path d="M 123.197291 241.969309 
L 211.076164 168.307495 
L 209.854564 62.073991 
L 117.770234 129.272941 
" style="fill:#f2f2f2;opacity:0.5;stroke:#f2f2f2;stroke-linejoin:miter;"/>
   </g>
  </g>
  <g id="pane3d_2">
   <g id="patch_4">
    <path d="M 211.076164 168.307495 
L 352.090401 209.294766 
L 357.122702 99.402171 
L 209.854564 62.073991 
" style="fill:#e6e6e6;opacity:0.5;stroke:#e6e6e6;stroke-linejoin:miter;"/>
   </g>
  </g>
  <g id="pane3d_3">
   <g id="patch_5">
    <path d="M 123.197291 241.969309 
L 272.679269 290.790123 
L 352.090401 209.294766 
L 211.076164 168.307495 
" style="fill:#ececec;opacity:0.5;stroke:#ececec;stroke-linejoin:miter;"/>
   </g>
  </g>
  <g id="axis3d_1">
   <g id="line2d_1">
    <path d="M 123.197291 241.969309 
L 272.679269 290.790123 
" style="fill:none;stroke:#000000;stroke-linecap:square;stroke-width:0.8;"/>
   </g>
   <g id="text_1">
    <text style="font-family:DejaVu Sans;font-size:10px;font-stretch:normal;font-style:normal;font-weight:normal;text-anchor:middle;" transform="rotate(-0, 179.676428, 303.76759)" x="179.676428" y="303.76759">x(m)</text>
   </g>
   <g id="text_2">
    <text style="font-family:DejaVu Sans;font-size:10px;font-stretch:normal;font-style:normal;font-weight:normal;text-anchor:start;" transform="rotate(-341.912962, 105.882314, 278.758775)" x="105.882314" y="278.758775">1e11</text>
   </g>
   <g id="Line3DCollection_1">
    <path d="M 132.165526 244.898335 
L 219.571553 170.776769 
L 218.709134 64.318366 
" style="fill:none;stroke:#b0b0b0;stroke-width:0.8;"/>
    <path d="M 153.123755 251.743292 
L 239.407197 176.542208 
L 239.392181 69.560916 
" style="fill:none;stroke:#b0b0b0;stroke-width:0.8;"/>
    <path d="M 174.401629 258.692646 
L 259.520226 182.388271 
L 260.377003 74.879956 
" style="fill:none;stroke:#b0b0b0;stroke-width:0.8;"/>
    <path d="M 196.006518 265.748802 
L 279.9165 188.316663 
L 281.670252 80.277174 
" style="fill:none;stroke:#b0b0b0;stroke-width:0.8;"/>
    <path d="M 217.946019 272.914243 
L 300.602044 194.329134 
L 303.278778 85.754306 
" style="fill:none;stroke:#b0b0b0;stroke-width:0.8;"/>
    <path d="M 240.227965 280.191527 
L 321.583058 200.427486 
L 325.209636 91.313139 
" style="fill:none;stroke:#b0b0b0;stroke-width:0.8;"/>
    <path d="M 262.860439 287.583293 
L 342.865915 206.613573 
L 347.470092 96.955516 
" style="fill:none;stroke:#b0b0b0;stroke-width:0.8;"/>
   </g>
   <g id="xtick_1">
    <g id="line2d_2">
     <path d="M 132.926651 244.25289 
L 130.640011 246.191994 
" style="fill:none;stroke:#000000;stroke-linecap:square;stroke-width:0.8;"/>
    </g>
    <g id="text_3">
     <text style="font-family:DejaVu Sans;font-size:10px;font-stretch:normal;font-style:normal;font-weight:normal;text-anchor:middle;" transform="rotate(-0, 124.636393, 268.206895)" x="124.636393" y="268.206895">−1.5</text>
    </g>
   </g>
   <g id="xtick_2">
    <g id="line2d_3">
     <path d="M 153.875566 251.088044 
L 151.616881 253.05662 
" style="fill:none;stroke:#000000;stroke-linecap:square;stroke-width:0.8;"/>
    </g>
    <g id="text_4">
     <text style="font-family:DejaVu Sans;font-size:10px;font-stretch:normal;font-style:normal;font-weight:normal;text-anchor:middle;" transform="rotate(-0, 145.615923, 275.19683)" x="145.615923" y="275.19683">−1.0</text>
    </g>
   </g>
   <g id="xtick_3">
    <g id="line2d_4">
     <path d="M 175.143753 258.02737 
L 172.914147 260.026095 
" style="fill:none;stroke:#000000;stroke-linecap:square;stroke-width:0.8;"/>
    </g>
    <g id="text_5">
     <text style="font-family:DejaVu Sans;font-size:10px;font-stretch:normal;font-style:normal;font-weight:normal;text-anchor:middle;" transform="rotate(-0, 166.916632, 282.293775)" x="166.916632" y="282.293775">−0.5</text>
    </g>
   </g>
   <g id="xtick_4">
    <g id="line2d_5">
     <path d="M 196.738568 265.073267 
L 194.539204 267.102839 
" style="fill:none;stroke:#000000;stroke-linecap:square;stroke-width:0.8;"/>
    </g>
    <g id="text_6">
     <text style="font-family:DejaVu Sans;font-size:10px;font-stretch:normal;font-style:normal;font-weight:normal;text-anchor:middle;" transform="rotate(-0, 188.545952, 289.500206)" x="188.545952" y="289.500206">0.0</text>
    </g>
   </g>
   <g id="xtick_5">
    <g id="line2d_6">
     <path d="M 218.667592 272.228208 
L 216.499679 274.289348 
" style="fill:none;stroke:#000000;stroke-linecap:square;stroke-width:0.8;"/>
    </g>
    <g id="text_7">
     <text style="font-family:DejaVu Sans;font-size:10px;font-stretch:normal;font-style:normal;font-weight:normal;text-anchor:middle;" transform="rotate(-0, 210.511545, 296.818676)" x="210.511545" y="296.818676">0.5</text>
    </g>
   </g>
   <g id="xtick_6">
    <g id="line2d_7">
     <path d="M 240.938645 279.494746 
L 238.803438 281.588195 
" style="fill:none;stroke:#000000;stroke-linecap:square;stroke-width:0.8;"/>
    </g>
    <g id="text_8">
     <text style="font-family:DejaVu Sans;font-size:10px;font-stretch:normal;font-style:normal;font-weight:normal;text-anchor:middle;" transform="rotate(-0, 232.821316, 304.251819)" x="232.821316" y="304.251819">1.0</text>
    </g>
   </g>
   <g id="xtick_7">
    <g id="line2d_8">
     <path d="M 263.559791 286.875512 
L 261.458591 289.002036 
" style="fill:none;stroke:#000000;stroke-linecap:square;stroke-width:0.8;"/>
    </g>
    <g id="text_9">
     <text style="font-family:DejaVu Sans;font-size:10px;font-stretch:normal;font-style:normal;font-weight:normal;text-anchor:middle;" transform="rotate(-0, 255.483418, 311.802351)" x="255.483418" y="311.802351">1.5</text>
    </g>
   </g>
  </g>
  <g id="axis3d_2">
   <g id="line2d_9">
    <path d="M 352.090401 209.294766 
L 272.679269 290.790123 
" style="fill:none;stroke:#000000;stroke-linecap:square;stroke-width:0.8;"/>
   </g>
   <g id="text_10">
    <text style="font-family:DejaVu Sans;font-size:10px;font-stretch:normal;font-style:normal;font-weight:normal;text-anchor:middle;" transform="rotate(-0, 341.132782, 278.988697)" x="341.132782" y="278.988697">y(m)</text>
   </g>
   <g id="text_11">
    <text style="font-family:DejaVu Sans;font-size:10px;font-stretch:normal;font-style:normal;font-weight:normal;text-anchor:end;" transform="rotate(-45.742112, 379.923609, 237.983639)" x="379.923609" y="237.983639">1e11</text>
   </g>
   <g id="Line3DCollection_2">
    <path d="M 123.992468 124.732238 
L 129.114368 237.009498 
L 278.048254 285.280223 
" style="fill:none;stroke:#b0b0b0;stroke-width:0.8;"/>
    <path d="M 138.31642 114.27927 
L 142.74736 225.582053 
L 290.406273 272.597856 
" style="fill:none;stroke:#b0b0b0;stroke-width:0.8;"/>
    <path d="M 152.263576 104.101271 
L 156.037198 214.442248 
L 302.436926 260.251446 
" style="fill:none;stroke:#b0b0b0;stroke-width:0.8;"/>
    <path d="M 165.848608 94.187533 
L 168.996678 203.579355 
L 314.153051 248.22782 
" style="fill:none;stroke:#b0b0b0;stroke-width:0.8;"/>
    <path d="M 179.08544 84.527896 
L 181.637965 192.983177 
L 325.566824 236.514481 
" style="fill:none;stroke:#b0b0b0;stroke-width:0.8;"/>
    <path d="M 191.98729 75.112714 
L 193.972637 182.64401 
L 336.689799 225.099572 
" style="fill:none;stroke:#b0b0b0;stroke-width:0.8;"/>
    <path d="M 204.566714 65.932823 
L 206.011716 172.552616 
L 347.532951 213.971831 
" style="fill:none;stroke:#b0b0b0;stroke-width:0.8;"/>
   </g>
   <g id="xtick_8">
    <g id="line2d_10">
     <path d="M 276.793175 284.873441 
L 280.561658 286.094839 
" style="fill:none;stroke:#000000;stroke-linecap:square;stroke-width:0.8;"/>
    </g>
    <g id="text_12">
     <text style="font-family:DejaVu Sans;font-size:10px;font-stretch:normal;font-style:normal;font-weight:normal;text-anchor:middle;" transform="rotate(-0, 290.930572, 306.303864)" x="290.930572" y="306.303864">−1.5</text>
    </g>
   </g>
   <g id="xtick_9">
    <g id="line2d_11">
     <path d="M 289.162784 272.201919 
L 292.896423 273.39074 
" style="fill:none;stroke:#000000;stroke-linecap:square;stroke-width:0.8;"/>
    </g>
    <g id="text_13">
     <text style="font-family:DejaVu Sans;font-size:10px;font-stretch:normal;font-style:normal;font-weight:normal;text-anchor:middle;" transform="rotate(-0, 303.122872, 293.433693)" x="303.122872" y="293.433693">−1.0</text>
    </g>
   </g>
   <g id="xtick_10">
    <g id="line2d_12">
     <path d="M 301.204858 259.865926 
L 304.904164 261.023457 
" style="fill:none;stroke:#000000;stroke-linecap:square;stroke-width:0.8;"/>
    </g>
    <g id="text_14">
     <text style="font-family:DejaVu Sans;font-size:10px;font-stretch:normal;font-style:normal;font-weight:normal;text-anchor:middle;" transform="rotate(-0, 314.992008, 280.904653)" x="314.992008" y="280.904653">−0.5</text>
    </g>
   </g>
   <g id="xtick_11">
    <g id="line2d_13">
     <path d="M 312.932236 247.852311 
L 316.597716 248.979771 
" style="fill:none;stroke:#000000;stroke-linecap:square;stroke-width:0.8;"/>
    </g>
    <g id="text_15">
     <text style="font-family:DejaVu Sans;font-size:10px;font-stretch:normal;font-style:normal;font-weight:normal;text-anchor:middle;" transform="rotate(-0, 326.550661, 268.703359)" x="326.550661" y="268.703359">0.0</text>
    </g>
   </g>
   <g id="xtick_12">
    <g id="line2d_14">
     <path d="M 324.357094 236.148598 
L 327.989251 237.247144 
" style="fill:none;stroke:#000000;stroke-linecap:square;stroke-width:0.8;"/>
    </g>
    <g id="text_16">
     <text style="font-family:DejaVu Sans;font-size:10px;font-stretch:normal;font-style:normal;font-weight:normal;text-anchor:middle;" transform="rotate(-0, 337.810856, 256.817117)" x="337.810856" y="256.817117">0.5</text>
    </g>
   </g>
   <g id="xtick_13">
    <g id="line2d_15">
     <path d="M 335.49099 224.742949 
L 339.090321 225.81368 
" style="fill:none;stroke:#000000;stroke-linecap:square;stroke-width:0.8;"/>
    </g>
    <g id="text_17">
     <text style="font-family:DejaVu Sans;font-size:10px;font-stretch:normal;font-style:normal;font-weight:normal;text-anchor:middle;" transform="rotate(-0, 348.784005, 245.233879)" x="348.784005" y="245.233879">1.0</text>
    </g>
   </g>
   <g id="xtick_14">
    <g id="line2d_16">
     <path d="M 346.344899 213.624122 
L 349.911896 214.66808 
" style="fill:none;stroke:#000000;stroke-linecap:square;stroke-width:0.8;"/>
    </g>
    <g id="text_18">
     <text style="font-family:DejaVu Sans;font-size:10px;font-stretch:normal;font-style:normal;font-weight:normal;text-anchor:middle;" transform="rotate(-0, 359.480947, 233.942206)" x="359.480947" y="233.942206">1.5</text>
    </g>
   </g>
  </g>
  <g id="axis3d_3">
   <g id="line2d_17">
    <path d="M 352.090401 209.294766 
L 357.122702 99.402171 
" style="fill:none;stroke:#000000;stroke-linecap:square;stroke-width:0.8;"/>
   </g>
   <g id="text_19">
    <text style="font-family:DejaVu Sans;font-size:10px;font-stretch:normal;font-style:normal;font-weight:normal;text-anchor:middle;" transform="rotate(-0, 394.92723, 152.902279)" x="394.92723" y="152.902279">z(m)</text>
   </g>
   <g id="text_20">
    <text style="font-family:DejaVu Sans;font-size:10px;font-stretch:normal;font-style:normal;font-weight:normal;text-anchor:end;" transform="rotate(-87.378092, 401.13578, 94.379648)" x="401.13578" y="94.379648">1e8</text>
   </g>
   <g id="Line3DCollection_3">
    <path d="M 352.378963 202.993307 
L 211.005976 162.203721 
L 122.886587 235.517339 
" style="fill:none;stroke:#b0b0b0;stroke-width:0.8;"/>
    <path d="M 353.440774 179.806053 
L 210.747852 139.756615 
L 121.742784 211.765521 
" style="fill:none;stroke:#b0b0b0;stroke-width:0.8;"/>
    <path d="M 354.522798 156.177418 
L 210.485051 116.902788 
L 120.57637 187.544189 
" style="fill:none;stroke:#b0b0b0;stroke-width:0.8;"/>
    <path d="M 355.625617 132.094678 
L 210.217445 93.631086 
L 119.38667 162.839282 
" style="fill:none;stroke:#b0b0b0;stroke-width:0.8;"/>
    <path d="M 356.749835 107.544614 
L 209.944901 69.929943 
L 118.172977 137.636174 
" style="fill:none;stroke:#b0b0b0;stroke-width:0.8;"/>
   </g>
   <g id="xtick_15">
    <g id="line2d_18">
     <path d="M 351.192311 202.650929 
L 354.755095 203.678879 
" style="fill:none;stroke:#000000;stroke-linecap:square;stroke-width:0.8;"/>
    </g>
    <g id="text_21">
     <text style="font-family:DejaVu Sans;font-size:10px;font-stretch:normal;font-style:normal;font-weight:normal;text-anchor:middle;" transform="rotate(-0, 370.67347, 207.999017)" x="370.67347" y="207.999017">−4</text>
    </g>
   </g>
   <g id="xtick_16">
    <g id="line2d_19">
     <path d="M 352.242514 179.469739 
L 355.840179 180.479491 
" style="fill:none;stroke:#000000;stroke-linecap:square;stroke-width:0.8;"/>
    </g>
    <g id="text_22">
     <text style="font-family:DejaVu Sans;font-size:10px;font-stretch:normal;font-style:normal;font-weight:normal;text-anchor:middle;" transform="rotate(-0, 371.904018, 184.857747)" x="371.904018" y="184.857747">−2</text>
    </g>
   </g>
   <g id="xtick_17">
    <g id="line2d_20">
     <path d="M 353.3127 155.847462 
L 356.945934 156.838132 
" style="fill:none;stroke:#000000;stroke-linecap:square;stroke-width:0.8;"/>
    </g>
    <g id="text_23">
     <text style="font-family:DejaVu Sans;font-size:10px;font-stretch:normal;font-style:normal;font-weight:normal;text-anchor:middle;" transform="rotate(-0, 373.157918, 161.27732)" x="373.157918" y="161.27732">0</text>
    </g>
   </g>
   <g id="xtick_18">
    <g id="line2d_21">
     <path d="M 354.403445 131.771387 
L 358.072958 132.742052 
" style="fill:none;stroke:#000000;stroke-linecap:square;stroke-width:0.8;"/>
    </g>
    <g id="text_24">
     <text style="font-family:DejaVu Sans;font-size:10px;font-stretch:normal;font-style:normal;font-weight:normal;text-anchor:middle;" transform="rotate(-0, 374.435842, 137.245115)" x="374.435842" y="137.245115">2</text>
    </g>
   </g>
   <g id="xtick_19">
    <g id="line2d_22">
     <path d="M 355.515347 107.228311 
L 359.22187 108.178004 
" style="fill:none;stroke:#000000;stroke-linecap:square;stroke-width:0.8;"/>
    </g>
    <g id="text_25">
     <text style="font-family:DejaVu Sans;font-size:10px;font-stretch:normal;font-style:normal;font-weight:normal;text-anchor:middle;" transform="rotate(-0, 375.738486, 112.748024)" x="375.738486" y="112.748024">4</text>
    </g>
   </g>
  </g>
  <g id="axes_1">
   <g id="line2d_23">
    <path clip-path="url(#pcd71f98f4d)" d="M 239.78312 171.585864 
L 239.783976 171.585419 
L 239.783833 171.585102 
" style="fill:none;stroke:#ff0000;stroke-linecap:square;stroke-width:1.5;"/>
   </g>
   <g id="line2d_24">
    <path clip-path="url(#pcd71f98f4d)" d="M 305.785137 190.167561 
L 308.594995 155.974493 
L 309.662483 145.561278 
L 310.377027 140.528242 
L 310.834765 138.66327 
L 311.093916 138.308702 
L 311.234077 138.398936 
L 311.40222 138.835399 
L 311.621011 140.093709 
L 311.877239 143.018791 
L 312.137176 148.886561 
L 312.346859 159.228996 
L 312.451147 176.352897 
L 312.553938 220.042171 
L 312.621065 219.752152 
L 312.786903 217.457429 
L 313.198342 208.0671 
L 314.117824 181.234213 
L 315.400271 137.551108 
L 315.753978 119.659376 
L 315.686749 118.097494 
L 315.643422 118.239226 
L 315.487973 119.794222 
L 314.996989 127.478549 
L 311.472588 186.472373 
L 310.724023 194.597005 
L 310.211098 198.052095 
L 309.896793 198.966256 
L 309.73029 198.977868 
L 309.571302 198.626796 
L 309.354847 197.486052 
L 309.080121 194.706955 
L 308.742671 188.700878 
L 308.34974 177.154635 
L 307.752109 151.456813 
L 307.062188 125.002355 
L 306.533976 112.647852 
L 306.034789 105.72792 
L 305.583078 102.231385 
L 305.199216 100.76957 
L 304.914879 100.388446 
L 304.725205 100.413329 
L 304.500126 100.696438 
L 304.176263 101.526086 
L 303.708249 103.462732 
L 303.073334 107.188843 
L 302.209032 113.737363 
L 300.964058 125.049013 
L 296.346166 168.690165 
L 295.344993 175.424955 
L 294.574977 179.223554 
L 293.983795 181.149325 
L 293.522294 181.971424 
L 293.220435 182.157428 
L 292.960141 182.081513 
L 292.667017 181.723024 
L 292.307034 180.872098 
L 291.849342 179.113645 
L 291.300911 175.985997 
L 290.668428 171.008243 
L 289.892541 163.044671 
L 288.85081 149.848601 
L 285.744408 108.872946 
L 284.790373 99.90884 
L 284.011013 94.486645 
L 283.314418 91.097092 
L 282.753528 89.332613 
L 282.300869 88.505822 
L 281.92264 88.203796 
L 281.623575 88.204086 
L 281.276586 88.456997 
L 280.87967 89.062421 
L 280.385307 90.258489 
L 279.741888 92.488093 
L 278.988052 95.960151 
L 278.020352 101.566527 
L 276.776526 110.245401 
L 274.987323 124.5369 
L 271.550983 152.21828 
L 270.25743 160.76354 
L 269.23407 166.150181 
L 268.424653 169.352192 
L 267.773713 171.160702 
L 267.227807 172.10984 
L 266.78452 172.482061 
L 266.441817 172.518494 
L 266.100898 172.334047 
L 265.713406 171.85516 
L 265.232109 170.8614 
L 264.658774 169.107284 
L 263.995148 166.32653 
L 263.195813 161.975345 
L 262.215924 155.322863 
L 260.963256 145.166801 
L 258.78245 125.268328 
L 256.716379 107.171754 
L 255.428316 97.719068 
L 254.365186 91.481963 
L 253.485829 87.568409 
L 252.746483 85.219897 
L 252.150819 83.977504 
L 251.651688 83.39013 
L 251.250657 83.219099 
L 250.898543 83.28939 
L 250.494803 83.621827 
L 250.038992 84.316417 
L 249.479736 85.621528 
L 248.816022 87.795984 
L 248.046928 91.119287 
L 247.120196 96.172532 
L 245.983298 103.721351 
L 244.532269 114.991561 
L 239.348698 156.820735 
L 238.262104 163.12318 
L 237.382398 167.046137 
L 236.657548 169.398021 
L 236.035757 170.747538 
L 235.517125 171.390332 
L 235.101844 171.58656 
L 234.73816 171.526707 
L 234.322128 171.195786 
L 233.853547 170.4938 
L 233.279992 169.174005 
L 232.60088 166.986938 
L 231.815511 163.675087 
L 230.870571 158.701072 
L 229.659545 151.022693 
L 228.0227 139.02022 
L 223.338674 103.729355 
L 222.095383 96.414443 
L 221.07124 91.653315 
L 220.261354 88.855552 
L 219.610298 87.30219 
L 219.064706 86.516988 
L 218.622138 86.24552 
L 218.280391 86.268646 
L 217.892551 86.547854 
L 217.45979 87.18466 
L 216.936083 88.424259 
L 216.324674 90.532022 
L 215.629357 93.798188 
L 214.809098 98.819204 
L 213.870602 106.020281 
L 212.689787 116.955661 
L 210.852308 136.443179 
L 208.863989 156.896498 
L 207.753494 166.206573 
L 206.843553 172.123989 
L 206.095772 175.687937 
L 205.471367 177.733957 
L 204.929536 178.82579 
L 204.519009 179.238739 
L 204.151064 179.313751 
L 203.826766 179.155484 
L 203.453475 178.721905 
L 202.982925 177.808435 
L 202.412675 176.185149 
L 201.691789 173.390581 
L 200.816126 169.010828 
L 199.733131 162.349949 
L 198.341934 152.287164 
L 196.007557 133.451514 
L 193.640265 114.937535 
L 192.348787 106.500602 
L 191.376863 101.530672 
L 190.655625 98.872198 
L 190.08286 97.528884 
L 189.686041 97.060021 
L 189.376174 96.986807 
L 189.110663 97.145609 
L 188.777083 97.657218 
L 188.381348 98.751972 
L 187.930619 100.704332 
L 187.400723 104.058175 
L 186.805717 109.322042 
L 186.102936 117.727106 
L 185.288581 130.364806 
L 183.9309 155.692049 
L 182.783478 175.285429 
L 182.020785 184.762736 
L 181.380933 190.121534 
L 180.854997 192.831579 
L 180.429752 194.001789 
L 180.117226 194.331128 
L 179.894133 194.311805 
L 179.634875 194.040565 
L 179.304517 193.334246 
L 178.865056 191.824123 
L 178.274635 188.892504 
L 177.524076 183.909497 
L 176.57069 175.982321 
L 175.268425 163.136428 
L 170.96495 119.049247 
L 170.347223 115.307476 
L 169.960195 114.048353 
L 169.752976 113.879116 
L 169.617087 114.018441 
L 169.436132 114.58917 
L 169.208793 116.123248 
L 168.947998 119.553793 
L 168.68442 126.298688 
L 168.458118 138.523144 
L 168.30436 160.623306 
L 168.024584 205.491023 
L 167.77606 212.349164 
L 167.54727 213.938181 
L 167.482222 213.957908 
L 167.448551 213.91171 
L 167.318707 213.426407 
L 167.072082 211.452003 
L 166.663916 206.111381 
L 166.03418 194.658533 
L 165.142572 174.098708 
L 164.205415 147.38849 
L 163.920479 134.265528 
L 163.956792 133.859094 
L 164.027523 134.331494 
L 164.29347 138.324311 
L 165.125552 154.868921 
L 168.305034 219.745268 
L 169.050519 230.28872 
L 169.475534 233.771182 
L 169.710618 234.384549 
L 169.800451 234.283996 
L 169.945531 233.641245 
L 170.15412 231.448757 
L 170.422668 225.795215 
L 170.774264 212.875667 
L 171.762404 173.960133 
L 172.279338 163.192361 
L 172.769621 157.222057 
L 173.205918 154.280421 
L 173.564268 153.101295 
L 173.839648 152.801594 
L 174.042026 152.867633 
L 174.282924 153.224359 
L 174.630626 154.206048 
L 175.099872 156.270417 
L 175.744557 160.220338 
L 176.589009 166.87007 
L 177.77875 178.18071 
L 179.72905 199.240546 
L 182.386524 227.546264 
L 183.634974 238.567707 
L 184.590545 245.164716 
L 185.317543 248.777937 
L 185.873136 250.565394 
L 186.306406 251.305138 
L 186.625165 251.456868 
L 186.869623 251.337787 
L 187.179741 250.883739 
L 187.552888 249.878296 
L 188.019576 247.906752 
L 188.576237 244.530707 
L 189.285646 238.718292 
L 190.182696 229.363581 
L 191.72074 210.527532 
L 193.410233 190.722846 
L 194.483422 180.67224 
L 195.382162 174.266336 
L 196.11279 170.477225 
L 196.738837 168.231164 
L 197.292996 166.987945 
L 197.719114 166.488684 
L 198.056638 166.363863 
L 198.399376 166.472763 
L 198.797283 166.885228 
L 199.25254 167.716277 
L 199.819324 169.254189 
L 200.502704 171.79257 
L 201.36156 175.931084 
L 202.402348 182.15642 
L 203.683871 191.2636 
L 205.485442 205.837723 
L 209.595052 239.653059 
L 210.935651 248.625661 
L 211.986657 254.277965 
L 212.86535 257.86848 
L 213.579544 259.932211 
L 214.185549 261.03919 
L 214.636696 261.464079 
L 215.035554 261.55004 
L 215.383063 261.401323 
L 215.778712 260.978089 
L 216.271368 260.075465 
L 216.860392 258.459328 
L 217.545693 255.870787 
L 218.377019 251.778754 
L 219.357094 245.773212 
L 220.640719 236.379409 
L 222.602554 220.084561 
L 225.372036 197.307314 
L 226.782154 187.502584 
L 227.946111 180.894584 
L 228.903688 176.647878 
L 229.701582 174.005411 
L 230.391392 172.410267 
L 230.969845 171.578661 
L 231.434638 171.249266 
L 231.842594 171.210086 
L 232.251541 171.405196 
L 232.719884 171.915516 
L 233.247672 172.85392 
L 233.893464 174.516054 
L 234.656715 177.186454 
L 235.535925 181.160435 
L 236.586502 187.060588 
L 237.802545 195.232423 
L 239.402181 207.604087 
L 244.079026 244.817866 
L 245.251934 251.949391 
L 246.204725 256.502342 
L 246.995866 259.320186 
L 247.680618 261.005281 
L 248.260104 261.867638 
L 248.734699 262.185169 
L 249.104328 262.190571 
L 249.474541 261.985628 
L 249.898524 261.496195 
L 250.430098 260.507557 
L 251.07077 258.782824 
L 251.822717 256.059305 
L 252.743279 251.790141 
L 253.838035 245.556204 
L 255.225642 236.234053 
L 257.203896 221.223522 
L 261.13595 191.129937 
L 262.649255 181.387366 
L 263.864908 174.942606 
L 264.840176 170.87617 
L 265.634893 168.398537 
L 266.308539 166.946819 
L 266.86376 166.23081 
L 267.303479 165.988596 
L 267.684738 166.02034 
L 268.062545 166.280287 
L 268.489888 166.856098 
L 269.017087 167.989704 
L 269.639001 169.943216 
L 270.349165 173.004918 
L 271.139897 177.459411 
L 272.049807 183.908616 
L 273.155563 193.467443 
L 274.648222 208.550831 
L 277.264263 235.141254 
L 278.283789 243.169729 
L 279.104642 247.999406 
L 279.768725 250.714353 
L 280.31497 252.124629 
L 280.739991 252.711927 
L 281.083355 252.867683 
L 281.386399 252.775007 
L 281.735852 252.408865 
L 282.177535 251.56538 
L 282.714938 249.999453 
L 283.398291 247.224534 
L 284.235349 242.771371 
L 285.282701 235.840025 
L 286.600566 225.494313 
L 288.549771 208.204873 
L 292.256847 175.147079 
L 293.649983 164.806664 
L 294.707526 158.49759 
L 295.541394 154.789651 
L 296.170611 152.915709 
L 296.614314 152.160416 
L 296.96561 151.940471 
L 297.231308 152.01903 
L 297.526709 152.37641 
L 297.883362 153.222036 
L 298.29261 154.812106 
L 298.775266 157.651315 
L 299.312522 162.224443 
L 299.909611 169.330531 
L 300.584129 180.234595 
L 301.438476 198.072215 
L 302.692624 223.973614 
L 303.239659 230.983424 
L 303.679029 234.171133 
L 304.012093 235.27443 
L 304.243944 235.453648 
L 304.411109 235.313672 
L 304.657021 234.737107 
L 304.707215 234.569104 
L 304.707215 234.569104 
" style="fill:none;stroke:#808080;stroke-linecap:square;stroke-width:1.5;"/>
   </g>
   <g id="line2d_25">
    <path clip-path="url(#pcd71f98f4d)" d="M 305.946909 190.66891 
L 307.733364 188.814125 
L 309.05701 187.124349 
L 310.209445 185.294077 
L 311.284088 183.164556 
L 312.32599 180.592401 
L 313.327588 177.516945 
L 314.120964 174.388956 
L 314.524655 171.94586 
L 314.637284 169.911808 
L 314.522804 167.808169 
L 314.153312 165.289643 
L 313.488428 162.30121 
L 312.628146 159.423291 
L 311.719565 157.126841 
L 310.758638 155.289011 
L 309.699463 153.738978 
L 308.410675 152.253449 
L 306.437041 150.356641 
L 296.733899 141.644195 
L 294.726973 140.252746 
L 292.776607 139.172946 
L 290.635879 138.249545 
L 287.819158 137.29763 
L 278.848029 134.424514 
L 269.655307 131.166174 
L 267.035149 130.571902 
L 264.424549 130.212574 
L 261.435203 130.035894 
L 256.758747 130.017922 
L 250.746902 129.94317 
L 246.000681 129.639123 
L 238.920928 129.165359 
L 235.995896 129.223455 
L 233.230401 129.50233 
L 230.270536 130.029596 
L 226.415813 130.959817 
L 217.443672 133.19529 
L 212.39715 134.138558 
L 207.670866 135.07661 
L 204.951956 135.851967 
L 202.46987 136.794455 
L 199.911347 138.008406 
L 196.824312 139.734688 
L 185.921549 146.062669 
L 182.146666 148.18356 
L 180.209061 149.537553 
L 178.496793 151.004069 
L 176.796553 152.757752 
L 174.971463 154.969038 
L 172.665182 158.141815 
L 168.53288 164.27233 
L 167.376429 166.328355 
L 166.624026 168.124909 
L 166.041189 170.112896 
L 165.595571 172.454232 
L 165.312823 175.158654 
L 165.239266 177.985172 
L 165.388958 180.554034 
L 165.727901 182.667928 
L 166.244397 184.500576 
L 167.043364 186.476682 
L 168.500469 189.41778 
L 170.534178 193.044742 
L 172.300967 195.762423 
L 173.889682 197.808731 
L 175.403581 199.407588 
L 176.968944 200.743188 
L 178.761285 201.974628 
L 181.378501 203.471269 
L 187.365992 206.852198 
L 194.068654 210.720313 
L 196.831863 212.021231 
L 199.312527 212.944216 
L 201.810558 213.632001 
L 204.612876 214.164039 
L 208.994493 214.732365 
L 214.723695 215.531236 
L 220.20734 216.558218 
L 226.250374 217.643779 
L 229.558159 218.007284 
L 232.49726 218.110344 
L 235.448278 217.987964 
L 238.742565 217.62066 
L 244.33177 216.724415 
L 249.842806 215.935802 
L 255.404572 215.391308 
L 261.404836 214.761112 
L 264.638842 214.188257 
L 267.45858 213.463808 
L 270.233926 212.518218 
L 273.260519 211.245113 
L 277.913127 209.005914 
L 283.367424 206.453232 
L 293.03619 202.103621 
L 295.235544 200.742636 
L 297.26363 199.221857 
L 299.295991 197.409698 
L 301.562347 195.074951 
L 305.767963 190.331811 
L 305.922788 190.156919 
L 305.922788 190.156919 
" style="fill:none;stroke:#00bfff;stroke-linecap:square;stroke-width:1.5;"/>
   </g>
   <g id="text_26">
    <text style="font-family:DejaVu Sans;font-size:12px;font-stretch:normal;font-style:normal;font-weight:normal;text-anchor:middle;" transform="rotate(-0, 236.16, 35.472)" x="236.16" y="35.472">N-body simulation tracks</text>
   </g>
   <g id="legend_1">
    <g id="patch_6">
     <path d="M 303.012875 93.506375 
L 362.216 93.506375 
Q 364.216 93.506375 364.216 91.506375 
L 364.216 48.472 
Q 364.216 46.472 362.216 46.472 
L 303.012875 46.472 
Q 301.012875 46.472 301.012875 48.472 
L 301.012875 91.506375 
Q 301.012875 93.506375 303.012875 93.506375 
z
" style="fill:#ffffff;opacity:0.8;stroke:#cccccc;stroke-linejoin:miter;"/>
    </g>
    <g id="line2d_26">
     <path d="M 305.012875 54.570438 
L 325.012875 54.570438 
" style="fill:none;stroke:#ff0000;stroke-linecap:square;stroke-width:1.5;"/>
    </g>
    <g id="line2d_27"/>
    <g id="text_27">
     <text style="font-family:DejaVu Sans;font-size:10px;font-stretch:normal;font-style:normal;font-weight:normal;text-anchor:start;" transform="rotate(-0, 333.012875, 58.070438)" x="333.012875" y="58.070438">Sun</text>
    </g>
    <g id="line2d_28">
     <path d="M 305.012875 69.248563 
L 325.012875 69.248563 
" style="fill:none;stroke:#808080;stroke-linecap:square;stroke-width:1.5;"/>
    </g>
    <g id="line2d_29"/>
    <g id="text_28">
     <text style="font-family:DejaVu Sans;font-size:10px;font-stretch:normal;font-style:normal;font-weight:normal;text-anchor:start;" transform="rotate(-0, 333.012875, 72.748563)" x="333.012875" y="72.748563">Moon</text>
    </g>
    <g id="line2d_30">
     <path d="M 305.012875 83.926688 
L 325.012875 83.926688 
" style="fill:none;stroke:#00bfff;stroke-linecap:square;stroke-width:1.5;"/>
    </g>
    <g id="line2d_31"/>
    <g id="text_29">
     <text style="font-family:DejaVu Sans;font-size:10px;font-stretch:normal;font-style:normal;font-weight:normal;text-anchor:start;" transform="rotate(-0, 333.012875, 87.426688)" x="333.012875" y="87.426688">Earth</text>
    </g>
   </g>
  </g>
 </g>
 <defs>
  <clipPath id="pcd71f98f4d">
   <rect height="266.112" width="266.112" x="103.104" y="41.472"/>
  </clipPath>
 </defs>
</svg>
