<?xml version="1.0" encoding="utf-8" standalone="no"?>
<!DOCTYPE svg PUBLIC "-//W3C//DTD SVG 1.1//EN"
  "http://www.w3.org/Graphics/SVG/1.1/DTD/svg11.dtd">
<!-- Created with matplotlib (https://matplotlib.org/) -->
<svg height="345.6pt" version="1.1" viewBox="0 0 460.8 345.6" width="460.8pt" xmlns="http://www.w3.org/2000/svg" xmlns:xlink="http://www.w3.org/1999/xlink">
 <metadata>
  <rdf:RDF xmlns:cc="http://creativecommons.org/ns#" xmlns:dc="http://purl.org/dc/elements/1.1/" xmlns:rdf="http://www.w3.org/1999/02/22-rdf-syntax-ns#">
   <cc:Work>
    <dc:type rdf:resource="http://purl.org/dc/dcmitype/StillImage"/>
    <dc:date>2023-11-20T13:48:37.270270</dc:date>
    <dc:format>image/svg+xml</dc:format>
    <dc:creator>
     <cc:Agent>
      <dc:title>Matplotlib v3.3.4, https://matplotlib.org/</dc:title>
     </cc:Agent>
    </dc:creator>
   </cc:Work>
  </rdf:RDF>
 </metadata>
 <defs>
  <style type="text/css">*{stroke-linecap:butt;stroke-linejoin:round;}</style>
 </defs>
 <g id="figure_1">
  <g id="patch_1">
   <path d="M 0 345.6 
L 460.8 345.6 
L 460.8 0 
L 0 0 
z
" style="fill:#ffffff;"/>
  </g>
  <g id="patch_2">
   <path d="M 103.104 307.584 
L 369.216 307.584 
L 369.216 41.472 
L 103.104 41.472 
z
" style="fill:#ffffff;"/>
  </g>
  <g id="pane3d_1">
   <g id="patch_3">
    <path d="M 123.197291 241.969309 
L 211.076164 168.307495 
L 209.854564 62.073991 
L 117.770234 129.272941 
" style="fill:#f2f2f2;opacity:0.5;stroke:#f2f2f2;stroke-linejoin:miter;"/>
   </g>
  </g>
  <g id="pane3d_2">
   <g id="patch_4">
    <path d="M 211.076164 168.307495 
L 352.090401 209.294766 
L 357.122702 99.402171 
L 209.854564 62.073991 
" style="fill:#e6e6e6;opacity:0.5;stroke:#e6e6e6;stroke-linejoin:miter;"/>
   </g>
  </g>
  <g id="pane3d_3">
   <g id="patch_5">
    <path d="M 123.197291 241.969309 
L 272.679269 290.790123 
L 352.090401 209.294766 
L 211.076164 168.307495 
" style="fill:#ececec;opacity:0.5;stroke:#ececec;stroke-linejoin:miter;"/>
   </g>
  </g>
  <g id="axis3d_1">
   <g id="line2d_1">
    <path d="M 123.197291 241.969309 
L 272.679269 290.790123 
" style="fill:none;stroke:#000000;stroke-linecap:square;stroke-width:0.8;"/>
   </g>
   <g id="text_1">
    <text style="font-family:DejaVu Sans;font-size:10px;font-stretch:normal;font-style:normal;font-weight:normal;text-anchor:middle;" transform="rotate(-0, 179.676428, 303.76759)" x="179.676428" y="303.76759">x(m)</text>
   </g>
   <g id="text_2">
    <text style="font-family:DejaVu Sans;font-size:10px;font-stretch:normal;font-style:normal;font-weight:normal;text-anchor:start;" transform="rotate(-341.912962, 105.882314, 278.758775)" x="105.882314" y="278.758775">1e11</text>
   </g>
   <g id="Line3DCollection_1">
    <path d="M 139.284027 247.223237 
L 226.311525 172.735813 
L 225.735669 66.099388 
" style="fill:none;stroke:#b0b0b0;stroke-width:0.8;"/>
    <path d="M 167.147912 256.323582 
L 252.666452 180.39615 
L 253.224735 73.067065 
" style="fill:none;stroke:#b0b0b0;stroke-width:0.8;"/>
    <path d="M 195.576746 265.608439 
L 279.511024 188.198807 
L 281.246817 80.169846 
" style="fill:none;stroke:#b0b0b0;stroke-width:0.8;"/>
    <path d="M 224.587887 275.083477 
L 306.859014 196.147788 
L 309.817568 87.411699 
" style="fill:none;stroke:#b0b0b0;stroke-width:0.8;"/>
    <path d="M 254.199412 284.754601 
L 334.724717 204.247248 
L 338.953262 94.796748 
" style="fill:none;stroke:#b0b0b0;stroke-width:0.8;"/>
   </g>
   <g id="xtick_1">
    <g id="line2d_2">
     <path d="M 140.042014 246.574471 
L 137.764792 248.52356 
" style="fill:none;stroke:#000000;stroke-linecap:square;stroke-width:0.8;"/>
    </g>
    <g id="text_3">
     <text style="font-family:DejaVu Sans;font-size:10px;font-stretch:normal;font-style:normal;font-weight:normal;text-anchor:middle;" transform="rotate(-0, 131.761996, 270.580995)" x="131.761996" y="270.580995">−2</text>
    </g>
   </g>
   <g id="xtick_2">
    <g id="line2d_3">
     <path d="M 167.893365 255.661733 
L 165.653767 257.650155 
" style="fill:none;stroke:#000000;stroke-linecap:square;stroke-width:0.8;"/>
    </g>
    <g id="text_4">
     <text style="font-family:DejaVu Sans;font-size:10px;font-stretch:normal;font-style:normal;font-weight:normal;text-anchor:middle;" transform="rotate(-0, 159.654994, 279.874351)" x="159.654994" y="279.874351">−1</text>
    </g>
   </g>
   <g id="xtick_3">
    <g id="line2d_4">
     <path d="M 196.308999 264.933108 
L 194.109026 266.962065 
" style="fill:none;stroke:#000000;stroke-linecap:square;stroke-width:0.8;"/>
    </g>
    <g id="text_5">
     <text style="font-family:DejaVu Sans;font-size:10px;font-stretch:normal;font-style:normal;font-weight:normal;text-anchor:middle;" transform="rotate(-0, 188.115681, 289.356849)" x="188.115681" y="289.356849">0</text>
    </g>
   </g>
   <g id="xtick_4">
    <g id="line2d_5">
     <path d="M 225.30624 274.394248 
L 223.147996 276.464993 
" style="fill:none;stroke:#000000;stroke-linecap:square;stroke-width:0.8;"/>
    </g>
    <g id="text_6">
     <text style="font-family:DejaVu Sans;font-size:10px;font-stretch:normal;font-style:normal;font-weight:normal;text-anchor:middle;" transform="rotate(-0, 217.161568, 299.034323)" x="217.161568" y="299.034323">1</text>
    </g>
   </g>
   <g id="xtick_5">
    <g id="line2d_6">
     <path d="M 254.90313 284.05104 
L 252.788823 286.164876 
" style="fill:none;stroke:#000000;stroke-linecap:square;stroke-width:0.8;"/>
    </g>
    <g id="text_7">
     <text style="font-family:DejaVu Sans;font-size:10px;font-stretch:normal;font-style:normal;font-weight:normal;text-anchor:middle;" transform="rotate(-0, 246.810891, 308.912849)" x="246.810891" y="308.912849">2</text>
    </g>
   </g>
  </g>
  <g id="axis3d_2">
   <g id="line2d_7">
    <path d="M 352.090401 209.294766 
L 272.679269 290.790123 
" style="fill:none;stroke:#000000;stroke-linecap:square;stroke-width:0.8;"/>
   </g>
   <g id="text_8">
    <text style="font-family:DejaVu Sans;font-size:10px;font-stretch:normal;font-style:normal;font-weight:normal;text-anchor:middle;" transform="rotate(-0, 341.132782, 278.988697)" x="341.132782" y="278.988697">y(m)</text>
   </g>
   <g id="text_9">
    <text style="font-family:DejaVu Sans;font-size:10px;font-stretch:normal;font-style:normal;font-weight:normal;text-anchor:end;" transform="rotate(-45.742112, 379.923609, 237.983639)" x="379.923609" y="237.983639">1e11</text>
   </g>
   <g id="Line3DCollection_2">
    <path d="M 129.222895 120.91531 
L 134.090626 232.8383 
L 282.561091 280.648942 
" style="fill:none;stroke:#b0b0b0;stroke-width:0.8;"/>
    <path d="M 147.853457 107.319575 
L 151.833273 217.966061 
L 298.633053 264.155156 
" style="fill:none;stroke:#b0b0b0;stroke-width:0.8;"/>
    <path d="M 165.846045 94.189403 
L 168.994232 203.581405 
L 314.150841 248.230087 
" style="fill:none;stroke:#b0b0b0;stroke-width:0.8;"/>
    <path d="M 183.232878 81.501285 
L 185.601645 189.660742 
L 329.142634 232.84482 
" style="fill:none;stroke:#b0b0b0;stroke-width:0.8;"/>
    <path d="M 200.044039 69.233265 
L 201.681872 176.181977 
L 343.634729 217.972366 
" style="fill:none;stroke:#b0b0b0;stroke-width:0.8;"/>
   </g>
   <g id="xtick_6">
    <g id="line2d_8">
     <path d="M 281.310228 280.246137 
L 285.066037 281.455587 
" style="fill:none;stroke:#000000;stroke-linecap:square;stroke-width:0.8;"/>
    </g>
    <g id="text_10">
     <text style="font-family:DejaVu Sans;font-size:10px;font-stretch:normal;font-style:normal;font-weight:normal;text-anchor:middle;" transform="rotate(-0, 295.382916, 301.603977)" x="295.382916" y="301.603977">−2</text>
    </g>
   </g>
   <g id="xtick_7">
    <g id="line2d_9">
     <path d="M 297.397359 263.766357 
L 301.107564 264.933736 
" style="fill:none;stroke:#000000;stroke-linecap:square;stroke-width:0.8;"/>
    </g>
    <g id="text_11">
     <text style="font-family:DejaVu Sans;font-size:10px;font-stretch:normal;font-style:normal;font-weight:normal;text-anchor:middle;" transform="rotate(-0, 311.239224, 284.866085)" x="311.239224" y="284.866085">−1</text>
    </g>
   </g>
   <g id="xtick_8">
    <g id="line2d_10">
     <path d="M 312.930024 247.854576 
L 316.59551 248.982042 
" style="fill:none;stroke:#000000;stroke-linecap:square;stroke-width:0.8;"/>
    </g>
    <g id="text_12">
     <text style="font-family:DejaVu Sans;font-size:10px;font-stretch:normal;font-style:normal;font-weight:normal;text-anchor:middle;" transform="rotate(-0, 326.548481, 268.70566)" x="326.548481" y="268.70566">0</text>
    </g>
   </g>
   <g id="xtick_9">
    <g id="line2d_11">
     <path d="M 327.936402 232.481927 
L 331.558044 233.571493 
" style="fill:none;stroke:#000000;stroke-linecap:square;stroke-width:0.8;"/>
    </g>
    <g id="text_13">
     <text style="font-family:DejaVu Sans;font-size:10px;font-stretch:normal;font-style:normal;font-weight:normal;text-anchor:middle;" transform="rotate(-0, 341.338517, 253.093324)" x="341.338517" y="253.093324">1</text>
    </g>
   </g>
   <g id="xtick_10">
    <g id="line2d_12">
     <path d="M 342.442796 217.621465 
L 346.021456 218.675009 
" style="fill:none;stroke:#000000;stroke-linecap:square;stroke-width:0.8;"/>
    </g>
    <g id="text_14">
     <text style="font-family:DejaVu Sans;font-size:10px;font-stretch:normal;font-style:normal;font-weight:normal;text-anchor:middle;" transform="rotate(-0, 355.635306, 238.001658)" x="355.635306" y="238.001658">2</text>
    </g>
   </g>
  </g>
  <g id="axis3d_3">
   <g id="line2d_13">
    <path d="M 352.090401 209.294766 
L 357.122702 99.402171 
" style="fill:none;stroke:#000000;stroke-linecap:square;stroke-width:0.8;"/>
   </g>
   <g id="text_15">
    <text style="font-family:DejaVu Sans;font-size:10px;font-stretch:normal;font-style:normal;font-weight:normal;text-anchor:middle;" transform="rotate(-0, 394.92723, 152.902279)" x="394.92723" y="152.902279">z(m)</text>
   </g>
   <g id="Line3DCollection_3">
    <path d="M 352.651911 197.032811 
L 210.939601 156.431576 
L 122.59264 229.41333 
" style="fill:none;stroke:#b0b0b0;stroke-width:0.8;"/>
    <path d="M 353.593746 176.465549 
L 210.710684 136.52439 
L 121.577933 208.34229 
" style="fill:none;stroke:#b0b0b0;stroke-width:0.8;"/>
    <path d="M 354.551427 155.552235 
L 210.478101 116.298387 
L 120.545497 186.903085 
" style="fill:none;stroke:#b0b0b0;stroke-width:0.8;"/>
    <path d="M 355.525359 134.284061 
L 210.241763 95.745848 
L 119.494863 165.085982 
" style="fill:none;stroke:#b0b0b0;stroke-width:0.8;"/>
    <path d="M 356.515957 112.651918 
L 210.001579 74.858801 
L 118.425545 142.8809 
" style="fill:none;stroke:#b0b0b0;stroke-width:0.8;"/>
   </g>
   <g id="xtick_11">
    <g id="line2d_14">
     <path d="M 351.462276 196.691975 
L 355.034024 197.715298 
" style="fill:none;stroke:#000000;stroke-linecap:square;stroke-width:0.8;"/>
    </g>
    <g id="text_16">
     <text style="font-family:DejaVu Sans;font-size:10px;font-stretch:normal;font-style:normal;font-weight:normal;text-anchor:middle;" transform="rotate(-0, 370.989801, 202.050217)" x="370.989801" y="202.050217">−0.04</text>
    </g>
   </g>
   <g id="xtick_12">
    <g id="line2d_15">
     <path d="M 352.393813 176.130123 
L 355.996504 177.13721 
" style="fill:none;stroke:#000000;stroke-linecap:square;stroke-width:0.8;"/>
    </g>
    <g id="text_17">
     <text style="font-family:DejaVu Sans;font-size:10px;font-stretch:normal;font-style:normal;font-weight:normal;text-anchor:middle;" transform="rotate(-0, 372.081293, 181.523976)" x="372.081293" y="181.523976">−0.02</text>
    </g>
   </g>
   <g id="xtick_13">
    <g id="line2d_16">
     <path d="M 353.341016 155.22245 
L 356.975191 156.212608 
" style="fill:none;stroke:#000000;stroke-linecap:square;stroke-width:0.8;"/>
    </g>
    <g id="text_18">
     <text style="font-family:DejaVu Sans;font-size:10px;font-stretch:normal;font-style:normal;font-weight:normal;text-anchor:middle;" transform="rotate(-0, 373.191094, 160.653431)" x="373.191094" y="160.653431">0.00</text>
    </g>
   </g>
   <g id="xtick_14">
    <g id="line2d_17">
     <path d="M 354.304285 133.960157 
L 357.970499 134.932664 
" style="fill:none;stroke:#000000;stroke-linecap:square;stroke-width:0.8;"/>
    </g>
    <g id="text_19">
     <text style="font-family:DejaVu Sans;font-size:10px;font-stretch:normal;font-style:normal;font-weight:normal;text-anchor:middle;" transform="rotate(-0, 374.319668, 139.429846)" x="374.319668" y="139.429846">0.02</text>
    </g>
   </g>
   <g id="xtick_15">
    <g id="line2d_18">
     <path d="M 355.284032 112.334145 
L 358.982853 113.288249 
" style="fill:none;stroke:#000000;stroke-linecap:square;stroke-width:0.8;"/>
    </g>
    <g id="text_20">
     <text style="font-family:DejaVu Sans;font-size:10px;font-stretch:normal;font-style:normal;font-weight:normal;text-anchor:middle;" transform="rotate(-0, 375.467495, 117.844187)" x="375.467495" y="117.844187">0.04</text>
    </g>
   </g>
  </g>
  <g id="axes_1">
   <g id="line2d_19">
    <path clip-path="url(#pdb5d09ab4e)" d="M 239.354061 170.831679 
L 239.486793 170.841379 
L 239.486793 170.841379 
" style="fill:none;stroke:#ff0000;stroke-linecap:square;stroke-width:1.5;"/>
   </g>
   <g id="line2d_20">
    <path clip-path="url(#pdb5d09ab4e)" d="M 255.987455 175.600799 
L 256.99455 174.55943 
L 257.721092 173.49231 
L 258.168203 172.445899 
L 258.37079 171.409583 
L 258.345369 170.396908 
L 258.100886 169.391715 
L 257.624317 168.378589 
L 256.903055 167.372037 
L 255.899856 166.36385 
L 254.592075 165.377551 
L 253.003577 164.460757 
L 251.098228 163.61894 
L 248.87886 162.885239 
L 246.414703 162.305454 
L 243.745539 161.904183 
L 240.921697 161.70396 
L 238.061199 161.721532 
L 235.23105 161.958442 
L 232.552009 162.399923 
L 230.078947 163.025226 
L 227.857088 163.810474 
L 225.960822 164.708202 
L 224.396638 165.683648 
L 223.158611 166.704839 
L 222.210323 167.770733 
L 221.561624 168.831688 
L 221.182988 169.866317 
L 221.040111 170.886844 
L 221.121295 171.909218 
L 221.425599 172.920933 
L 221.967323 173.937414 
L 222.758174 174.942977 
L 223.836308 175.945075 
L 225.221941 176.918494 
L 226.927041 177.834237 
L 228.953001 178.660059 
L 231.236675 179.34824 
L 233.796958 179.884186 
L 236.53773 180.228706 
L 239.400937 180.36286 
L 242.26335 180.276138 
L 245.057716 179.972477 
L 247.719498 179.460798 
L 250.141154 178.770566 
L 252.241597 177.948391 
L 254.046642 177.009038 
L 255.5103 176.003314 
L 256.644917 174.962351 
L 257.471313 173.913056 
L 258.027509 172.850356 
L 258.321004 171.819282 
L 258.384552 170.806912 
L 258.228574 169.797301 
L 257.841476 168.774764 
L 257.209459 167.753517 
L 256.321963 166.749568 
L 255.140718 165.757288 
L 253.646877 164.802373 
L 251.829593 163.914397 
L 249.736302 163.141607 
L 247.33978 162.497427 
L 244.720025 162.025745 
L 241.92472 161.750307 
L 239.069623 161.690928 
L 236.221192 161.850927 
L 233.44694 162.228498 
L 230.864677 162.80281 
L 228.525224 163.550291 
L 226.510032 164.424123 
L 224.830699 165.388316 
L 223.485384 166.409344 
L 222.461156 167.457072 
L 221.736432 168.505345 
L 221.274056 169.561138 
L 221.063841 170.578662 
L 221.077402 171.601809 
L 221.314673 172.618065 
L 221.788975 173.643084 
L 222.513098 174.661376 
L 223.495743 175.655683 
L 224.775608 176.630569 
L 226.367634 177.558705 
L 228.277191 178.40934 
L 230.497791 179.149033 
L 232.955007 179.732286 
L 235.661763 180.142745 
L 238.511329 180.345667 
L 241.381355 180.327553 
L 244.204051 180.090726 
L 246.91388 179.642589 
L 249.400386 179.010091 
L 251.621804 178.219904 
L 253.509383 177.320785 
L 255.093452 176.324508 
L 256.33895 175.282116 
L 257.264165 174.222412 
L 257.894403 173.169795 
L 258.266435 172.116312 
L 258.394916 171.077213 
L 258.297261 170.065734 
L 257.969344 169.038063 
L 257.414677 168.03487 
L 256.591813 167.01745 
L 255.504992 166.030872 
L 254.115387 165.072479 
L 252.409348 164.170168 
L 250.382624 163.355445 
L 248.093624 162.675549 
L 245.520366 162.146631 
L 242.754716 161.80958 
L 239.910323 161.686693 
L 237.053057 161.78274 
L 234.250284 162.097428 
L 231.621296 162.612639 
L 229.218811 163.306049 
L 227.128286 164.132832 
L 225.327428 165.079802 
L 223.866965 166.095699 
L 222.737542 167.148668 
L 221.920113 168.210714 
L 221.38838 169.258106 
L 221.106436 170.300646 
L 221.058777 171.32351 
L 221.235134 172.342903 
L 221.633336 173.346357 
L 222.26904 174.348953 
L 223.17941 175.360659 
L 224.388442 176.358383 
L 225.873968 177.293481 
L 227.671972 178.162591 
L 229.780408 178.933566 
L 232.1842 179.572241 
L 234.797599 180.036119 
L 237.569666 180.304247 
L 240.440571 180.35939 
L 243.286435 180.194473 
L 246.040805 179.81525 
L 248.590379 179.245903 
L 250.890601 178.512109 
L 252.908008 177.640964 
L 254.585413 176.682536 
L 255.928483 175.670054 
L 256.952849 174.63278 
L 257.697034 173.568618 
L 258.161407 172.524037 
L 258.38107 171.488568 
L 258.372326 170.475824 
L 258.144405 169.469685 
L 257.684548 168.454682 
L 256.979924 167.445271 
L 255.993445 166.433091 
L 254.735749 165.464206 
L 253.168271 164.538697 
L 251.282405 163.686381 
L 249.080251 162.940392 
L 246.629991 162.346892 
L 243.970827 161.930677 
L 241.152543 161.714546 
L 238.292709 161.715897 
L 235.458229 161.93665 
L 232.71663 162.373545 
L 230.184075 163.003189 
L 227.954398 163.782519 
L 226.049051 164.675174 
L 224.441403 165.670245 
L 223.17214 166.715927 
L 222.226041 167.782297 
L 221.579518 168.843586 
L 221.203002 169.878419 
L 221.062215 170.899039 
L 221.145492 171.9214 
L 221.451867 172.932996 
L 221.995673 173.949247 
L 222.788586 174.954465 
L 223.868779 175.956085 
L 225.256419 176.928887 
L 226.96342 177.843866 
L 228.991114 178.668783 
L 231.276263 179.355943 
L 233.837742 179.89075 
L 236.579357 180.234055 
L 239.443024 180.366946 
L 242.305496 180.278969 
L 245.099529 179.974087 
L 247.76061 179.461252 
L 250.181244 178.769974 
L 252.280427 177.946894 
L 254.084004 177.006768 
L 255.546073 176.000419 
L 256.679031 174.958974 
L 257.503746 173.909329 
L 258.058234 172.846396 
L 258.350065 171.8152 
L 258.411977 170.802808 
L 258.254366 169.793271 
L 257.865611 168.770907 
L 257.231938 167.749941 
L 256.342816 166.746384 
L 255.159966 165.754627 
L 253.664587 164.800374 
L 251.845884 163.913207 
L 249.751375 163.141354 
L 247.353868 162.498251 
L 244.733439 162.027755 
L 241.937818 161.753591 
L 239.0828 161.695523 
L 236.234855 161.85684 
L 233.461498 162.235704 
L 230.8805 162.811227 
L 228.542641 163.559816 
L 226.529283 164.434608 
L 224.851954 165.399608 
L 223.508749 166.421289 
L 222.486681 167.469521 
L 221.764113 168.518157 
L 221.303905 169.57419 
L 221.09578 170.591835 
L 221.111444 171.614998 
L 221.350804 172.631167 
L 221.827216 173.655988 
L 222.55344 174.673968 
L 223.538145 175.667842 
L 224.820039 176.642161 
L 226.414014 177.569587 
L 228.32538 178.419369 
L 230.547589 179.158069 
L 233.006123 179.740226 
L 235.713884 180.149477 
L 238.564073 180.351133 
L 241.434315 180.331746 
L 244.256825 180.093671 
L 246.966085 179.644341 
L 249.451683 179.010752 
L 251.671905 178.219593 
L 253.558084 177.319651 
L 255.140576 176.322685 
L 256.384408 175.279753 
L 257.307918 174.219649 
L 257.936456 173.166761 
L 258.306782 172.11312 
L 258.433577 171.073968 
L 258.334281 170.062534 
L 258.004697 169.035009 
L 257.448406 168.03206 
L 256.623898 167.015002 
L 255.53549 166.028901 
L 254.144352 165.07112 
L 252.436886 164.16956 
L 250.408895 163.355733 
L 248.118872 162.676853 
L 245.544868 162.149082 
L 242.778822 161.813269 
L 239.934423 161.691664 
L 237.077553 161.789006 
L 234.275584 162.104972 
L 231.64777 162.62139 
L 229.246794 163.31591 
L 227.158025 164.143667 
L 225.359153 165.091481 
L 223.900804 166.108069 
L 222.773563 167.161577 
L 221.958329 168.22402 
L 221.42876 169.271677 
L 221.14897 170.314366 
L 221.103426 171.33727 
L 221.281895 172.356599 
L 221.682181 173.359887 
L 222.319974 174.362207 
L 223.232461 175.37351 
L 224.443595 176.370695 
L 225.970297 177.326677 
L 227.775507 178.192133 
L 229.890329 178.958834 
L 232.299407 179.592654 
L 234.916653 180.051275 
L 237.690972 180.313853 
L 240.562408 180.363277 
L 243.407041 180.19272 
L 246.158485 179.808066 
L 248.70364 179.233719 
L 250.998168 178.495435 
L 253.008829 177.620371 
L 254.678829 176.658698 
L 256.014093 175.643627 
L 257.030481 174.604385 
L 257.766494 173.538798 
L 258.222858 172.493331 
L 258.43459 171.457445 
L 258.418096 170.444722 
L 258.182477 169.439023 
L 257.714854 168.424905 
L 257.002505 167.416847 
L 256.008274 166.406562 
L 254.709324 165.417522 
L 253.129114 164.497389 
L 251.231482 163.651554 
L 249.018982 162.913156 
L 246.560439 162.328133 
L 243.895418 161.921161 
L 241.074042 161.714874 
L 238.214157 161.726271 
L 235.382732 161.957037 
L 232.647282 162.403672 
L 230.173215 163.027418 
L 227.949937 163.811265 
L 226.051944 164.707799 
L 224.485809 165.682262 
L 223.218729 166.72854 
L 222.295186 167.767986 
L 221.644256 168.828548 
L 221.263432 169.862957 
L 221.118391 170.883419 
L 221.197407 171.905873 
L 221.499572 172.917812 
L 222.039159 173.934673 
L 222.827917 174.940778 
L 223.903995 175.943605 
L 225.287673 176.917953 
L 226.990995 177.834827 
L 229.015432 178.661986 
L 231.297946 179.351663 
L 233.857478 179.889275 
L 236.597991 180.235567 
L 239.461473 180.37156 
L 242.324702 180.286664 
L 245.120411 179.984771 
L 247.784037 179.474764 
L 250.207948 178.786041 
L 252.352996 177.94612 
L 254.155058 177.005177 
L 255.615488 175.998162 
L 256.746741 174.956198 
L 257.569733 173.906169 
L 258.111442 172.870597 
L 258.407795 171.839675 
L 258.474139 170.827315 
L 258.320945 169.817579 
L 257.936667 168.794774 
L 257.307473 167.773108 
L 256.422768 166.768582 
L 255.244306 165.775545 
L 253.753181 164.819678 
L 251.938477 163.930551 
L 249.847507 163.15644 
L 247.453027 162.510748 
L 244.83492 162.037413 
L 242.040811 161.760211 
L 239.186397 161.699026 
L 236.338124 161.857219 
L 233.563504 162.233025 
L 230.980383 162.805689 
L 228.639634 163.551672 
L 226.62281 164.42421 
L 224.941594 165.387322 
L 223.594226 166.407482 
L 222.567853 167.45455 
L 221.840955 168.502356 
L 221.376371 169.557852 
L 221.16402 170.575244 
L 221.17543 171.598405 
L 221.410567 172.614822 
L 221.882728 173.640157 
L 222.604741 174.65893 
L 223.585353 175.653884 
L 224.863264 176.629612 
L 226.453485 177.55879 
L 228.361463 178.41067 
L 230.580795 179.151803 
L 233.037152 179.736641 
L 235.743508 180.148833 
L 238.593201 180.353567 
L 241.463895 180.337263 
L 244.287787 180.102199 
L 246.999315 179.65574 
L 249.487939 179.024765 
L 251.711824 178.235923 
L 253.602089 177.337933 
L 255.189047 176.342589 
L 256.437503 175.300917 
L 257.36568 174.241734 
L 257.998829 173.189457 
L 258.373752 172.136157 
L 258.505072 171.097091 
L 258.410176 170.085508 
L 258.085062 169.057593 
L 257.533139 168.054017 
L 256.713075 167.03605 
L 255.628995 166.048762 
L 254.242091 165.089474 
L 252.538652 164.18607 
L 250.514355 163.370054 
L 248.227488 162.688699 
L 245.656042 162.158139 
L 242.891771 161.819318 
L 240.048257 161.694604 
L 237.191351 161.788805 
L 234.388413 162.101672 
L 231.758758 162.615163 
L 229.355153 163.30699 
L 227.263147 164.132387 
L 225.460489 165.078154 
L 223.998021 166.093069 
L 222.866469 167.145272 
L 222.046856 168.206758 
L 221.512947 169.25378 
L 221.3114 169.888863 
L 221.3114 169.888863 
" style="fill:none;stroke:#00ffff;stroke-linecap:square;stroke-width:1.5;"/>
   </g>
   <g id="line2d_21">
    <path clip-path="url(#pdb5d09ab4e)" d="M 270.559959 179.815977 
L 271.991456 178.368496 
L 273.113436 176.924527 
L 273.959407 175.480659 
L 274.544971 174.05018 
L 274.8909 172.623946 
L 275.006142 171.211802 
L 274.897795 169.80207 
L 274.567694 168.403539 
L 274.009352 167.004758 
L 273.20489 165.596017 
L 272.141503 164.189612 
L 270.808621 162.79913 
L 269.175872 161.422231 
L 267.229394 160.078266 
L 264.988157 158.8033 
L 262.424963 157.602878 
L 259.541065 156.501315 
L 256.380345 155.533932 
L 252.964072 154.721313 
L 249.319618 154.083634 
L 245.520705 153.643733 
L 241.609053 153.412935 
L 237.629891 153.400507 
L 233.671757 153.610124 
L 229.822145 154.033955 
L 226.086706 154.668314 
L 222.582416 155.486842 
L 219.339361 156.468672 
L 216.381186 157.59239 
L 213.72537 158.836431 
L 211.408976 160.163338 
L 209.428707 161.54874 
L 207.775587 162.970156 
L 206.435878 164.407188 
L 205.379545 165.861337 
L 204.604952 167.297929 
L 204.083216 168.723347 
L 203.796746 170.147016 
L 203.738696 171.559241 
L 203.904819 172.971696 
L 204.295233 174.375439 
L 204.919281 175.781697 
L 205.783942 177.180115 
L 206.911688 178.578698 
L 208.31541 179.963317 
L 210.029106 181.3356 
L 212.042006 182.658726 
L 214.386533 183.928404 
L 217.035782 185.106499 
L 219.981028 186.171324 
L 223.207259 187.10067 
L 226.692651 187.872254 
L 230.40814 188.464225 
L 234.275148 188.852736 
L 238.205815 189.025112 
L 242.193291 188.977406 
L 246.144585 188.70726 
L 249.968791 188.224699 
L 253.621831 187.542933 
L 257.064461 186.677261 
L 260.228302 185.657058 
L 263.124466 184.491599 
L 265.673564 183.230638 
L 267.902971 181.884203 
L 269.789656 180.491607 
L 271.366274 179.056752 
L 272.626134 177.617138 
L 273.603007 176.170621 
L 274.31144 174.73132 
L 274.768055 173.311657 
L 274.992682 171.901603 
L 274.993324 170.489638 
L 274.771144 169.084612 
L 274.320547 167.674969 
L 273.635825 166.270512 
L 272.69834 164.862318 
L 271.496402 163.463344 
L 269.999781 162.07017 
L 268.216997 160.717939 
L 266.118388 159.408256 
L 263.696884 158.163188 
L 260.951028 157.006539 
L 257.920681 155.974157 
L 254.624289 155.086657 
L 251.086254 154.364431 
L 247.337194 153.827255 
L 243.454492 153.496147 
L 239.48243 153.381452 
L 235.509062 153.489031 
L 231.582856 153.817691 
L 227.790289 154.357069 
L 224.173473 155.094675 
L 220.80528 156.005546 
L 217.712355 157.06843 
L 214.915033 158.261741 
L 212.454436 159.548439 
L 210.329959 160.903587 
L 208.514436 162.321834 
L 207.023207 163.765974 
L 205.8404 165.216462 
L 204.946635 166.656015 
L 204.31256 168.090023 
L 203.923905 169.506521 
L 203.763978 170.915715 
L 203.827696 172.329208 
L 204.115827 173.738093 
L 204.627709 175.1334 
L 205.386119 176.546098 
L 206.391225 177.944583 
L 207.666164 179.335869 
L 209.244802 180.722804 
L 211.119566 182.068978 
L 213.323542 183.371389 
L 215.833679 184.591985 
L 218.643953 185.709487 
L 221.74234 186.701925 
L 225.11025 187.547037 
L 228.722055 188.222752 
L 232.503094 188.703646 
L 236.410793 188.976789 
L 240.398298 189.031625 
L 244.372992 188.863329 
L 248.243001 188.479499 
L 252.002529 187.884637 
L 255.567234 187.096262 
L 258.864476 186.142423 
L 261.870419 185.046456 
L 264.568495 183.831683 
L 266.948854 182.520935 
L 269.007734 181.136154 
L 270.726726 179.716524 
L 272.122474 178.283714 
L 273.228833 176.836845 
L 274.059208 175.390852 
L 274.629353 173.958974 
L 274.959946 172.532008 
L 275.060046 171.119771 
L 274.936631 169.710563 
L 274.591632 168.313167 
L 274.018446 166.916145 
L 273.199095 165.509839 
L 272.120912 164.106572 
L 270.773476 162.719959 
L 269.126395 161.347737 
L 267.16602 160.009292 
L 264.883107 158.726022 
L 262.305011 157.534258 
L 259.407575 156.442376 
L 256.23512 155.485552 
L 252.809172 154.684298 
L 249.157351 154.058701 
L 245.313592 153.628015 
L 241.399393 153.412366 
L 237.421012 153.415334 
L 233.467029 153.640264 
L 229.624816 154.078999 
L 225.937634 154.720104 
L 222.444898 155.550246 
L 219.215529 156.542859 
L 216.272903 157.676452 
L 213.662459 158.914575 
L 211.361299 160.247949 
L 209.396918 161.638919 
L 207.760098 163.065023 
L 206.436882 164.505895 
L 205.39726 165.963115 
L 204.639205 167.402007 
L 204.133911 168.829031 
L 203.863901 170.253656 
L 203.822218 171.666205 
L 204.004755 173.078361 
L 204.411526 174.481178 
L 205.052009 175.885854 
L 205.947316 177.301701 
L 207.09482 178.696641 
L 208.539055 180.094896 
L 210.275534 181.460527 
L 212.310481 182.775785 
L 214.676251 184.036246 
L 217.345299 185.203879 
L 220.308533 186.257031 
L 223.550569 187.173556 
L 227.049203 187.931263 
L 230.775008 188.508425 
L 234.649002 188.881519 
L 238.583111 189.038234 
L 242.570433 188.974663 
L 246.517945 188.68883 
L 250.334914 188.191131 
L 253.977498 187.494958 
L 257.406725 186.61577 
L 260.554706 185.583209 
L 263.401456 184.420696 
L 265.933992 183.151377 
L 268.145735 181.797686 
L 270.014189 180.399001 
L 271.572072 178.959109 
L 272.813191 177.51552 
L 273.771292 176.065971 
L 274.46111 174.624526 
L 274.899424 173.203546 
L 275.105936 171.792932 
L 275.088501 170.381135 
L 274.848395 168.976998 
L 274.379877 167.568978 
L 273.677364 166.166895 
L 272.722104 164.761881 
L 271.502575 163.366926 
L 269.988502 161.978707 
L 268.164537 160.61584 
L 266.04671 159.31425 
L 263.607021 158.078469 
L 260.844365 156.932307 
L 257.799122 155.911457 
L 257.201556 155.736656 
L 257.201556 155.736656 
" style="fill:none;stroke:#ff7f50;stroke-linecap:square;stroke-width:1.5;"/>
   </g>
   <g id="line2d_22">
    <path clip-path="url(#pdb5d09ab4e)" d="M 282.66408 183.313743 
L 284.331475 181.628078 
L 285.710488 179.921084 
L 286.800245 178.222641 
L 287.625965 176.52777 
L 288.199705 174.84676 
L 288.537051 173.171161 
L 288.645049 171.509128 
L 288.529299 169.850657 
L 288.191668 168.20322 
L 287.627907 166.55695 
L 286.825499 164.903069 
L 285.775608 163.251157 
L 284.456766 161.59555 
L 282.856379 159.949027 
L 280.963967 158.325581 
L 278.771545 156.740369 
L 276.251035 155.196666 
L 273.419506 153.726692 
L 270.279129 152.348842 
L 266.836184 151.082207 
L 263.101426 149.946384 
L 259.090437 148.961253 
L 254.856548 148.152103 
L 250.428444 147.533912 
L 245.872807 147.122965 
L 241.227104 146.927239 
L 236.56515 146.952151 
L 231.927432 147.197536 
L 227.354301 147.661494 
L 222.918102 148.334631 
L 218.685797 149.19982 
L 214.686347 150.241593 
L 210.944656 151.443764 
L 207.507962 152.77844 
L 204.387257 154.225254 
L 201.588852 155.764362 
L 199.114762 157.376643 
L 196.980813 159.028866 
L 195.159163 160.717496 
L 193.654195 162.410564 
L 192.4369 164.108895 
L 191.493841 165.799567 
L 190.803962 167.488323 
L 190.357734 169.165422 
L 190.144355 170.821924 
L 190.154503 172.485115 
L 190.385796 174.129772 
L 190.843484 175.783672 
L 191.533955 177.438712 
L 192.473371 179.103271 
L 193.672993 180.767049 
L 195.142582 182.418719 
L 196.890088 184.045952 
L 198.941859 185.650236 
L 201.308173 187.214901 
L 203.996003 188.721788 
L 207.008412 190.151355 
L 210.314691 191.472172 
L 213.933833 192.67582 
L 217.821463 193.732268 
L 221.955649 194.623636 
L 226.309504 195.332633 
L 230.815287 195.839748 
L 235.434757 196.13508 
L 240.090468 196.210894 
L 244.775814 196.06447 
L 249.375177 195.699565 
L 253.882837 195.119562 
L 258.224168 194.337196 
L 262.331957 193.373324 
L 266.210228 192.236121 
L 269.774979 190.962584 
L 273.041996 189.563005 
L 275.999639 188.05604 
L 278.618867 186.474321 
L 280.903788 184.838001 
L 282.862511 183.165746 
L 284.506504 181.474621 
L 285.849984 179.780036 
L 286.918809 178.078545 
L 287.723714 176.381462 
L 288.276887 174.699034 
L 288.593811 173.022756 
L 288.68163 171.360759 
L 288.545828 169.703018 
L 288.188361 168.056995 
L 287.597546 166.395657 
L 286.773066 164.744947 
L 285.689241 163.080617 
L 284.346205 161.430441 
L 282.721879 159.790395 
L 280.805995 158.174502 
L 278.569741 156.584152 
L 276.025067 155.051218 
L 273.170687 153.59324 
L 269.981998 152.217894 
L 266.489196 150.957413 
L 262.734209 149.839762 
L 258.705898 148.874052 
L 254.45804 148.085321 
L 250.019579 147.488415 
L 245.457475 147.099312 
L 240.809331 146.925824 
L 236.149046 146.973029 
L 231.517103 147.240587 
L 226.953825 147.726423 
L 222.531381 148.420811 
L 218.316421 149.306316 
L 214.337639 150.367342 
L 210.619655 151.587589 
L 207.2092 152.938939 
L 204.1169 154.400971 
L 201.348714 155.953805 
L 198.92606 157.563987 
L 196.822329 159.22606 
L 195.046727 160.907426 
L 193.57049 162.607032 
L 192.382095 164.310729 
L 191.467894 166.005643 
L 190.806935 167.697599 
L 190.389527 169.376888 
L 190.204717 171.034607 
L 190.243658 172.698083 
L 190.503534 174.342089 
L 190.990081 175.994384 
L 191.709554 177.646827 
L 192.678267 179.307728 
L 193.907307 180.966727 
L 195.406241 182.612448 
L 197.201253 184.247929 
L 199.305021 185.857654 
L 201.704204 187.410735 
L 204.423865 188.904365 
L 207.466653 190.318978 
L 210.830655 191.633818 
L 214.477518 192.817975 
L 218.389681 193.853396 
L 222.544782 194.722323 
L 226.915522 195.407616 
L 231.433689 195.890142 
L 236.0608 196.160226 
L 240.719211 196.21057 
L 245.402254 196.038511 
L 249.994379 195.648458 
L 254.489958 195.043843 
L 258.814659 194.237826 
L 262.901749 193.251643 
L 266.725274 192.103487 
L 270.264397 190.812035 
L 273.503215 189.396128 
L 276.406619 187.887992 
L 278.974857 186.308711 
L 281.23179 184.662816 
L 282.739071 183.377762 
L 282.739071 183.377762 
" style="fill:none;stroke:#00bfff;stroke-linecap:square;stroke-width:1.5;"/>
   </g>
   <g id="line2d_23">
    <path clip-path="url(#pdb5d09ab4e)" d="M 305.856257 190.012712 
L 307.874392 187.938978 
L 309.598894 185.853199 
L 311.040075 183.766142 
L 312.209419 181.68765 
L 313.124788 179.612473 
L 313.794602 177.548359 
L 314.230237 175.488129 
L 314.436741 173.438315 
L 314.418896 171.390813 
L 314.178326 169.351707 
L 313.713298 167.312872 
L 313.016585 165.266715 
L 312.082639 163.220304 
L 310.898138 161.167585 
L 309.454719 159.117198 
L 307.745093 157.078366 
L 305.750046 155.048466 
L 303.460425 153.039173 
L 300.868732 151.062969 
L 297.951877 149.122243 
L 294.721044 147.243087 
L 291.175142 145.440315 
L 287.315619 143.729336 
L 283.146677 142.126074 
L 278.67548 140.64687 
L 273.93688 139.314693 
L 268.947096 138.143586 
L 263.725154 137.147392 
L 258.319624 136.343054 
L 252.756703 135.740556 
L 247.092085 135.350503 
L 241.35661 135.178131 
L 235.609721 135.226915 
L 229.883901 135.496861 
L 224.238604 135.984027 
L 218.704767 136.683157 
L 213.312221 137.588023 
L 208.139761 138.67974 
L 203.185138 139.951442 
L 198.493632 141.384094 
L 194.103874 142.954786 
L 190.026004 144.646623 
L 186.247386 146.453019 
L 182.812375 148.338405 
L 179.701175 150.296382 
L 176.912214 152.311861 
L 174.455289 154.35808 
L 172.307382 156.432849 
L 170.460296 158.523477 
L 168.904122 160.618117 
L 167.627454 162.705793 
L 166.611611 164.790434 
L 165.84751 166.863405 
L 165.325106 168.916699 
L 165.030971 170.971776 
L 164.962872 173.022203 
L 165.117851 175.061688 
L 165.495718 177.098526 
L 166.101916 179.140863 
L 166.940894 181.182059 
L 168.024622 183.229189 
L 169.360797 185.274324 
L 170.967705 187.322466 
L 172.855901 189.363529 
L 175.034651 191.386539 
L 177.5117 193.379655 
L 180.293017 195.330197 
L 183.402031 197.235868 
L 186.823868 199.069962 
L 190.557415 200.817421 
L 194.598684 202.462642 
L 198.940561 203.989599 
L 203.572572 205.381994 
L 208.48067 206.623427 
L 213.619005 207.692363 
L 218.963704 208.576021 
L 224.487904 209.262406 
L 230.132098 209.738565 
L 235.863102 209.998083 
L 241.616278 210.036334 
L 247.356211 209.853273 
L 253.047661 209.450378 
L 258.655852 208.830623 
L 264.118513 208.003323 
L 269.377823 206.983405 
L 274.434953 205.77705 
L 279.213955 204.410867 
L 283.723346 202.893128 
L 287.947367 201.238301 
L 291.852077 199.471277 
L 295.432209 197.608681 
L 298.667507 195.678166 
L 301.58004 193.684614 
L 304.173188 191.642443 
L 306.439308 189.578256 
L 308.402511 187.492426 
L 310.072014 185.396555 
L 311.458421 183.301316 
L 312.573478 181.216458 
L 313.434907 179.1366 
L 314.051328 177.069419 
L 314.432062 175.021987 
L 314.538481 173.989801 
L 314.538481 173.989801 
" style="fill:none;stroke:#ff6347;stroke-linecap:square;stroke-width:1.5;"/>
   </g>
   <g id="text_21">
    <text style="font-family:DejaVu Sans;font-size:12px;font-stretch:normal;font-style:normal;font-weight:normal;text-anchor:middle;" transform="rotate(-0, 236.16, 35.472)" x="236.16" y="35.472">N-body simulation tracks</text>
   </g>
   <g id="legend_1">
    <g id="patch_6">
     <path d="M 289.683187 122.862625 
L 362.216 122.862625 
Q 364.216 122.862625 364.216 120.862625 
L 364.216 48.472 
Q 364.216 46.472 362.216 46.472 
L 289.683187 46.472 
Q 287.683187 46.472 287.683187 48.472 
L 287.683187 120.862625 
Q 287.683187 122.862625 289.683187 122.862625 
z
" style="fill:#ffffff;opacity:0.8;stroke:#cccccc;stroke-linejoin:miter;"/>
    </g>
    <g id="line2d_24">
     <path d="M 291.683187 54.570438 
L 311.683187 54.570438 
" style="fill:none;stroke:#ff0000;stroke-linecap:square;stroke-width:1.5;"/>
    </g>
    <g id="line2d_25"/>
    <g id="text_22">
     <text style="font-family:DejaVu Sans;font-size:10px;font-stretch:normal;font-style:normal;font-weight:normal;text-anchor:start;" transform="rotate(-0, 319.683187, 58.070438)" x="319.683187" y="58.070438">Sun</text>
    </g>
    <g id="line2d_26">
     <path d="M 291.683187 69.248563 
L 311.683187 69.248563 
" style="fill:none;stroke:#00ffff;stroke-linecap:square;stroke-width:1.5;"/>
    </g>
    <g id="line2d_27"/>
    <g id="text_23">
     <text style="font-family:DejaVu Sans;font-size:10px;font-stretch:normal;font-style:normal;font-weight:normal;text-anchor:start;" transform="rotate(-0, 319.683187, 72.748563)" x="319.683187" y="72.748563">Mercury</text>
    </g>
    <g id="line2d_28">
     <path d="M 291.683187 83.926688 
L 311.683187 83.926688 
" style="fill:none;stroke:#ff7f50;stroke-linecap:square;stroke-width:1.5;"/>
    </g>
    <g id="line2d_29"/>
    <g id="text_24">
     <text style="font-family:DejaVu Sans;font-size:10px;font-stretch:normal;font-style:normal;font-weight:normal;text-anchor:start;" transform="rotate(-0, 319.683187, 87.426688)" x="319.683187" y="87.426688">Venus</text>
    </g>
    <g id="line2d_30">
     <path d="M 291.683187 98.604813 
L 311.683187 98.604813 
" style="fill:none;stroke:#00bfff;stroke-linecap:square;stroke-width:1.5;"/>
    </g>
    <g id="line2d_31"/>
    <g id="text_25">
     <text style="font-family:DejaVu Sans;font-size:10px;font-stretch:normal;font-style:normal;font-weight:normal;text-anchor:start;" transform="rotate(-0, 319.683187, 102.104813)" x="319.683187" y="102.104813">Earth</text>
    </g>
    <g id="line2d_32">
     <path d="M 291.683187 113.282938 
L 311.683187 113.282938 
" style="fill:none;stroke:#ff6347;stroke-linecap:square;stroke-width:1.5;"/>
    </g>
    <g id="line2d_33"/>
    <g id="text_26">
     <text style="font-family:DejaVu Sans;font-size:10px;font-stretch:normal;font-style:normal;font-weight:normal;text-anchor:start;" transform="rotate(-0, 319.683187, 116.782938)" x="319.683187" y="116.782938">Mars</text>
    </g>
   </g>
  </g>
 </g>
 <defs>
  <clipPath id="pdb5d09ab4e">
   <rect height="266.112" width="266.112" x="103.104" y="41.472"/>
  </clipPath>
 </defs>
</svg>
