<?xml version="1.0" encoding="utf-8" standalone="no"?>
<!DOCTYPE svg PUBLIC "-//W3C//DTD SVG 1.1//EN"
  "http://www.w3.org/Graphics/SVG/1.1/DTD/svg11.dtd">
<!-- Created with matplotlib (https://matplotlib.org/) -->
<svg height="345.6pt" version="1.1" viewBox="0 0 460.8 345.6" width="460.8pt" xmlns="http://www.w3.org/2000/svg" xmlns:xlink="http://www.w3.org/1999/xlink">
 <metadata>
  <rdf:RDF xmlns:cc="http://creativecommons.org/ns#" xmlns:dc="http://purl.org/dc/elements/1.1/" xmlns:rdf="http://www.w3.org/1999/02/22-rdf-syntax-ns#">
   <cc:Work>
    <dc:type rdf:resource="http://purl.org/dc/dcmitype/StillImage"/>
    <dc:date>2023-11-12T06:13:43.269468</dc:date>
    <dc:format>image/svg+xml</dc:format>
    <dc:creator>
     <cc:Agent>
      <dc:title>Matplotlib v3.3.4, https://matplotlib.org/</dc:title>
     </cc:Agent>
    </dc:creator>
   </cc:Work>
  </rdf:RDF>
 </metadata>
 <defs>
  <style type="text/css">*{stroke-linecap:butt;stroke-linejoin:round;}</style>
 </defs>
 <g id="figure_1">
  <g id="patch_1">
   <path d="M 0 345.6 
L 460.8 345.6 
L 460.8 0 
L 0 0 
z
" style="fill:#ffffff;"/>
  </g>
  <g id="patch_2">
   <path d="M 103.104 307.584 
L 369.216 307.584 
L 369.216 41.472 
L 103.104 41.472 
z
" style="fill:#ffffff;"/>
  </g>
  <g id="pane3d_1">
   <g id="patch_3">
    <path d="M 123.197291 241.969309 
L 211.076164 168.307495 
L 209.854564 62.073991 
L 117.770234 129.272941 
" style="fill:#f2f2f2;opacity:0.5;stroke:#f2f2f2;stroke-linejoin:miter;"/>
   </g>
  </g>
  <g id="pane3d_2">
   <g id="patch_4">
    <path d="M 211.076164 168.307495 
L 352.090401 209.294766 
L 357.122702 99.402171 
L 209.854564 62.073991 
" style="fill:#e6e6e6;opacity:0.5;stroke:#e6e6e6;stroke-linejoin:miter;"/>
   </g>
  </g>
  <g id="pane3d_3">
   <g id="patch_5">
    <path d="M 123.197291 241.969309 
L 272.679269 290.790123 
L 352.090401 209.294766 
L 211.076164 168.307495 
" style="fill:#ececec;opacity:0.5;stroke:#ececec;stroke-linejoin:miter;"/>
   </g>
  </g>
  <g id="axis3d_1">
   <g id="line2d_1">
    <path d="M 123.197291 241.969309 
L 272.679269 290.790123 
" style="fill:none;stroke:#000000;stroke-linecap:square;stroke-width:0.8;"/>
   </g>
   <g id="text_1">
    <text style="font-family:DejaVu Sans;font-size:10px;font-stretch:normal;font-style:normal;font-weight:normal;text-anchor:middle;" transform="rotate(-0, 179.676428, 303.76759)" x="179.676428" y="303.76759">x(m)</text>
   </g>
   <g id="text_2">
    <text style="font-family:DejaVu Sans;font-size:10px;font-stretch:normal;font-style:normal;font-weight:normal;text-anchor:start;" transform="rotate(-341.912962, 105.882314, 278.758775)" x="105.882314" y="278.758775">1e11</text>
   </g>
   <g id="Line3DCollection_1">
    <path d="M 139.345939 247.243458 
L 226.370133 172.752848 
L 225.796774 66.114877 
" style="fill:none;stroke:#b0b0b0;stroke-width:0.8;"/>
    <path d="M 167.160063 256.32755 
L 252.677935 180.399487 
L 253.236718 73.070102 
" style="fill:none;stroke:#b0b0b0;stroke-width:0.8;"/>
    <path d="M 195.537096 265.595489 
L 279.473615 188.187934 
L 281.207752 80.159944 
" style="fill:none;stroke:#b0b0b0;stroke-width:0.8;"/>
    <path d="M 224.494304 275.052913 
L 306.770871 196.122168 
L 309.725446 87.388348 
" style="fill:none;stroke:#b0b0b0;stroke-width:0.8;"/>
    <path d="M 254.049662 284.705693 
L 334.583918 204.206323 
L 338.805985 94.759417 
" style="fill:none;stroke:#b0b0b0;stroke-width:0.8;"/>
   </g>
   <g id="xtick_1">
    <g id="line2d_2">
     <path d="M 140.103899 246.594662 
L 137.82676 248.543839 
" style="fill:none;stroke:#000000;stroke-linecap:square;stroke-width:0.8;"/>
    </g>
    <g id="text_3">
     <text style="font-family:DejaVu Sans;font-size:10px;font-stretch:normal;font-style:normal;font-weight:normal;text-anchor:middle;" transform="rotate(-0, 131.823971, 270.601644)" x="131.823971" y="270.601644">−2</text>
    </g>
   </g>
   <g id="xtick_2">
    <g id="line2d_3">
     <path d="M 167.90551 255.665696 
L 165.665929 257.654135 
" style="fill:none;stroke:#000000;stroke-linecap:square;stroke-width:0.8;"/>
    </g>
    <g id="text_4">
     <text style="font-family:DejaVu Sans;font-size:10px;font-stretch:normal;font-style:normal;font-weight:normal;text-anchor:middle;" transform="rotate(-0, 159.667158, 279.878404)" x="159.667158" y="279.878404">−1</text>
    </g>
   </g>
   <g id="xtick_3">
    <g id="line2d_4">
     <path d="M 196.269368 264.920177 
L 194.069339 266.949077 
" style="fill:none;stroke:#000000;stroke-linecap:square;stroke-width:0.8;"/>
    </g>
    <g id="text_5">
     <text style="font-family:DejaVu Sans;font-size:10px;font-stretch:normal;font-style:normal;font-weight:normal;text-anchor:middle;" transform="rotate(-0, 188.075986, 289.343623)" x="188.075986" y="289.343623">0</text>
    </g>
   </g>
   <g id="xtick_4">
    <g id="line2d_5">
     <path d="M 225.212702 274.363729 
L 223.054322 276.434338 
" style="fill:none;stroke:#000000;stroke-linecap:square;stroke-width:0.8;"/>
    </g>
    <g id="text_6">
     <text style="font-family:DejaVu Sans;font-size:10px;font-stretch:normal;font-style:normal;font-weight:normal;text-anchor:middle;" transform="rotate(-0, 217.067869, 299.003104)" x="217.067869" y="299.003104">1</text>
    </g>
   </g>
   <g id="xtick_5">
    <g id="line2d_6">
     <path d="M 254.753455 284.002204 
L 252.638922 286.115822 
" style="fill:none;stroke:#000000;stroke-linecap:square;stroke-width:0.8;"/>
    </g>
    <g id="text_7">
     <text style="font-family:DejaVu Sans;font-size:10px;font-stretch:normal;font-style:normal;font-weight:normal;text-anchor:middle;" transform="rotate(-0, 246.660943, 308.862889)" x="246.660943" y="308.862889">2</text>
    </g>
   </g>
  </g>
  <g id="axis3d_2">
   <g id="line2d_7">
    <path d="M 352.090401 209.294766 
L 272.679269 290.790123 
" style="fill:none;stroke:#000000;stroke-linecap:square;stroke-width:0.8;"/>
   </g>
   <g id="text_8">
    <text style="font-family:DejaVu Sans;font-size:10px;font-stretch:normal;font-style:normal;font-weight:normal;text-anchor:middle;" transform="rotate(-0, 341.132782, 278.988697)" x="341.132782" y="278.988697">y(m)</text>
   </g>
   <g id="text_9">
    <text style="font-family:DejaVu Sans;font-size:10px;font-stretch:normal;font-style:normal;font-weight:normal;text-anchor:end;" transform="rotate(-45.742112, 379.923609, 237.983639)" x="379.923609" y="237.983639">1e11</text>
   </g>
   <g id="Line3DCollection_2">
    <path d="M 129.319243 120.845 
L 134.182312 232.761447 
L 282.644217 280.563634 
" style="fill:none;stroke:#b0b0b0;stroke-width:0.8;"/>
    <path d="M 147.924417 107.267791 
L 151.900904 217.909372 
L 298.69426 264.092342 
" style="fill:none;stroke:#b0b0b0;stroke-width:0.8;"/>
    <path d="M 165.893285 94.15493 
L 169.039321 203.543611 
L 314.191578 248.188282 
" style="fill:none;stroke:#b0b0b0;stroke-width:0.8;"/>
    <path d="M 183.257939 81.482997 
L 185.6256 189.640663 
L 329.16424 232.822647 
" style="fill:none;stroke:#b0b0b0;stroke-width:0.8;"/>
    <path d="M 200.048351 69.230118 
L 201.685999 176.178517 
L 343.638445 217.968551 
" style="fill:none;stroke:#b0b0b0;stroke-width:0.8;"/>
   </g>
   <g id="xtick_6">
    <g id="line2d_8">
     <path d="M 281.393432 280.160903 
L 285.149007 281.370133 
" style="fill:none;stroke:#000000;stroke-linecap:square;stroke-width:0.8;"/>
    </g>
    <g id="text_10">
     <text style="font-family:DejaVu Sans;font-size:10px;font-stretch:normal;font-style:normal;font-weight:normal;text-anchor:middle;" transform="rotate(-0, 295.464927, 301.517406)" x="295.464927" y="301.517406">−2</text>
    </g>
   </g>
   <g id="xtick_7">
    <g id="line2d_9">
     <path d="M 297.458625 263.703596 
L 301.168655 264.870817 
" style="fill:none;stroke:#000000;stroke-linecap:square;stroke-width:0.8;"/>
    </g>
    <g id="text_11">
     <text style="font-family:DejaVu Sans;font-size:10px;font-stretch:normal;font-style:normal;font-weight:normal;text-anchor:middle;" transform="rotate(-0, 311.299609, 284.802343)" x="311.299609" y="284.802343">−1</text>
    </g>
   </g>
   <g id="xtick_8">
    <g id="line2d_10">
     <path d="M 312.9708 247.812805 
L 316.636168 248.940167 
" style="fill:none;stroke:#000000;stroke-linecap:square;stroke-width:0.8;"/>
    </g>
    <g id="text_12">
     <text style="font-family:DejaVu Sans;font-size:10px;font-stretch:normal;font-style:normal;font-weight:normal;text-anchor:middle;" transform="rotate(-0, 326.58867, 268.663237)" x="326.58867" y="268.663237">0</text>
    </g>
   </g>
   <g id="xtick_9">
    <g id="line2d_11">
     <path d="M 327.958029 232.459772 
L 331.579607 233.549283 
" style="fill:none;stroke:#000000;stroke-linecap:square;stroke-width:0.8;"/>
    </g>
    <g id="text_13">
     <text style="font-family:DejaVu Sans;font-size:10px;font-stretch:normal;font-style:normal;font-weight:normal;text-anchor:middle;" transform="rotate(-0, 341.359832, 253.070824)" x="341.359832" y="253.070824">1</text>
    </g>
   </g>
   <g id="xtick_10">
    <g id="line2d_12">
     <path d="M 342.446517 217.617654 
L 346.025165 218.671189 
" style="fill:none;stroke:#000000;stroke-linecap:square;stroke-width:0.8;"/>
    </g>
    <g id="text_14">
     <text style="font-family:DejaVu Sans;font-size:10px;font-stretch:normal;font-style:normal;font-weight:normal;text-anchor:middle;" transform="rotate(-0, 355.638972, 237.997788)" x="355.638972" y="237.997788">2</text>
    </g>
   </g>
  </g>
  <g id="axis3d_3">
   <g id="line2d_13">
    <path d="M 352.090401 209.294766 
L 357.122702 99.402171 
" style="fill:none;stroke:#000000;stroke-linecap:square;stroke-width:0.8;"/>
   </g>
   <g id="text_15">
    <text style="font-family:DejaVu Sans;font-size:10px;font-stretch:normal;font-style:normal;font-weight:normal;text-anchor:middle;" transform="rotate(-0, 394.92723, 152.902279)" x="394.92723" y="152.902279">z(m)</text>
   </g>
   <g id="Line3DCollection_3">
    <path d="M 352.651911 197.032811 
L 210.939601 156.431576 
L 122.59264 229.41333 
" style="fill:none;stroke:#b0b0b0;stroke-width:0.8;"/>
    <path d="M 353.593746 176.465549 
L 210.710684 136.52439 
L 121.577933 208.34229 
" style="fill:none;stroke:#b0b0b0;stroke-width:0.8;"/>
    <path d="M 354.551427 155.552235 
L 210.478101 116.298387 
L 120.545497 186.903085 
" style="fill:none;stroke:#b0b0b0;stroke-width:0.8;"/>
    <path d="M 355.525359 134.284061 
L 210.241763 95.745848 
L 119.494863 165.085982 
" style="fill:none;stroke:#b0b0b0;stroke-width:0.8;"/>
    <path d="M 356.515957 112.651918 
L 210.001579 74.858801 
L 118.425545 142.8809 
" style="fill:none;stroke:#b0b0b0;stroke-width:0.8;"/>
   </g>
   <g id="xtick_11">
    <g id="line2d_14">
     <path d="M 351.462276 196.691975 
L 355.034024 197.715298 
" style="fill:none;stroke:#000000;stroke-linecap:square;stroke-width:0.8;"/>
    </g>
    <g id="text_16">
     <text style="font-family:DejaVu Sans;font-size:10px;font-stretch:normal;font-style:normal;font-weight:normal;text-anchor:middle;" transform="rotate(-0, 370.989801, 202.050217)" x="370.989801" y="202.050217">−0.04</text>
    </g>
   </g>
   <g id="xtick_12">
    <g id="line2d_15">
     <path d="M 352.393813 176.130123 
L 355.996504 177.13721 
" style="fill:none;stroke:#000000;stroke-linecap:square;stroke-width:0.8;"/>
    </g>
    <g id="text_17">
     <text style="font-family:DejaVu Sans;font-size:10px;font-stretch:normal;font-style:normal;font-weight:normal;text-anchor:middle;" transform="rotate(-0, 372.081293, 181.523976)" x="372.081293" y="181.523976">−0.02</text>
    </g>
   </g>
   <g id="xtick_13">
    <g id="line2d_16">
     <path d="M 353.341016 155.22245 
L 356.975191 156.212608 
" style="fill:none;stroke:#000000;stroke-linecap:square;stroke-width:0.8;"/>
    </g>
    <g id="text_18">
     <text style="font-family:DejaVu Sans;font-size:10px;font-stretch:normal;font-style:normal;font-weight:normal;text-anchor:middle;" transform="rotate(-0, 373.191094, 160.653431)" x="373.191094" y="160.653431">0.00</text>
    </g>
   </g>
   <g id="xtick_14">
    <g id="line2d_17">
     <path d="M 354.304285 133.960157 
L 357.970499 134.932664 
" style="fill:none;stroke:#000000;stroke-linecap:square;stroke-width:0.8;"/>
    </g>
    <g id="text_19">
     <text style="font-family:DejaVu Sans;font-size:10px;font-stretch:normal;font-style:normal;font-weight:normal;text-anchor:middle;" transform="rotate(-0, 374.319668, 139.429846)" x="374.319668" y="139.429846">0.02</text>
    </g>
   </g>
   <g id="xtick_15">
    <g id="line2d_18">
     <path d="M 355.284032 112.334145 
L 358.982853 113.288249 
" style="fill:none;stroke:#000000;stroke-linecap:square;stroke-width:0.8;"/>
    </g>
    <g id="text_20">
     <text style="font-family:DejaVu Sans;font-size:10px;font-stretch:normal;font-style:normal;font-weight:normal;text-anchor:middle;" transform="rotate(-0, 375.467495, 117.844187)" x="375.467495" y="117.844187">0.04</text>
    </g>
   </g>
  </g>
  <g id="axes_1">
   <g id="line2d_19">
    <path clip-path="url(#p20ee0e1199)" d="M 239.358721 170.782212 
L 239.491208 170.791868 
L 239.491208 170.791868 
" style="fill:none;stroke:#ff0000;stroke-linecap:square;stroke-width:1.5;"/>
   </g>
   <g id="line2d_20">
    <path clip-path="url(#p20ee0e1199)" d="M 255.960844 175.542056 
L 256.963824 174.501138 
L 257.686894 173.43437 
L 258.131082 172.388193 
L 258.331067 171.352007 
L 258.303254 170.339376 
L 258.056449 169.33417 
L 257.577517 168.321 
L 256.853834 167.31441 
L 255.848111 166.306231 
L 254.537777 165.32003 
L 252.946893 164.40345 
L 251.039481 163.561961 
L 248.818662 162.82864 
L 246.353997 162.249127 
L 243.685492 161.847758 
L 240.863564 161.646695 
L 238.005998 161.662259 
L 235.179244 161.895545 
L 232.449893 162.342487 
L 229.932354 162.978873 
L 227.718224 163.761302 
L 225.787866 164.674881 
L 224.197674 165.668886 
L 222.941743 166.710401 
L 222.003803 167.770251 
L 221.359714 168.823465 
L 220.972525 169.878207 
L 220.827823 170.918813 
L 220.908026 171.931689 
L 221.216295 172.962089 
L 221.749164 173.968318 
L 222.547249 174.99061 
L 223.60569 175.983024 
L 224.962095 176.949141 
L 226.628551 177.86151 
L 228.607452 178.689614 
L 230.889422 179.400623 
L 233.45142 179.960458 
L 236.199268 180.329893 
L 239.076007 180.489954 
L 241.960284 180.429332 
L 244.785527 180.151326 
L 247.487626 179.664102 
L 249.958999 178.99556 
L 252.159487 178.172361 
L 254.023001 177.243292 
L 255.548572 176.242889 
L 256.746324 175.202152 
L 257.634977 174.148099 
L 258.251891 173.076396 
L 258.601936 172.031974 
L 258.717889 171.002758 
L 258.610729 169.973402 
L 258.281687 168.955769 
L 257.716656 167.935162 
L 256.904357 166.926487 
L 255.807485 165.922606 
L 254.40575 164.94748 
L 252.685953 164.028862 
L 250.644227 163.197993 
L 248.338521 162.501786 
L 245.747445 161.955943 
L 242.961777 161.600974 
L 240.093738 161.459141 
L 237.208252 161.535149 
L 234.371532 161.828728 
L 231.701377 162.322599 
L 229.249791 162.99502 
L 227.058936 163.821471 
L 225.198419 164.753981 
L 223.671929 165.758381 
L 222.471404 166.803503 
L 221.579394 167.861865 
L 220.958627 168.938062 
L 220.604834 169.985864 
L 220.484529 171.017758 
L 220.586252 172.049637 
L 220.908398 173.069395 
L 221.464642 174.092338 
L 222.289721 175.129321 
L 223.377905 176.134538 
L 224.766089 177.111165 
L 226.465411 178.031776 
L 228.477354 178.866007 
L 230.791757 179.581315 
L 233.385009 180.144026 
L 236.163178 180.515477 
L 239.069484 180.676995 
L 241.983476 180.617444 
L 244.839017 180.340079 
L 247.572391 179.852953 
L 250.076608 179.183516 
L 252.311356 178.35807 
L 254.210211 177.424752 
L 255.771293 176.417804 
L 257.003716 175.368082 
L 257.925179 174.302599 
L 258.559735 173.244332 
L 258.942683 172.184834 
L 259.087724 171.138591 
L 259.00609 170.090757 
L 258.69873 169.053374 
L 258.152161 168.012071 
L 257.355 166.981805 
L 256.270765 165.955494 
L 254.879066 164.956925 
L 253.206307 164.032924 
L 251.218203 163.189483 
L 248.919963 162.45912 
L 246.382184 161.886059 
L 243.645484 161.493904 
L 240.76045 161.304031 
L 237.843479 161.331844 
L 234.960234 161.578218 
L 232.17649 162.039011 
L 229.604992 162.690356 
L 227.336479 163.489771 
L 225.391357 164.40182 
L 223.74325 165.4159 
L 222.432 166.481512 
L 221.443179 167.569533 
L 220.754412 168.654789 
L 220.337608 169.716273 
L 220.159128 170.765569 
L 220.206869 171.817926 
L 220.47989 172.860976 
L 220.990872 173.909719 
L 221.75097 174.948996 
L 222.795783 175.986639 
L 224.110781 176.976307 
L 225.731511 177.918103 
L 227.662215 178.783115 
L 229.896447 179.540102 
L 232.415305 180.156402 
L 235.131558 180.592572 
L 237.993669 180.829416 
L 240.942186 180.851428 
L 243.856518 180.653406 
L 246.672278 180.24161 
L 249.280007 179.640228 
L 251.63636 178.874206 
L 253.708355 177.96986 
L 255.4397 176.975879 
L 256.834451 175.924625 
L 257.906256 174.844871 
L 258.676093 173.761492 
L 259.170218 172.69538 
L 259.42196 171.636228 
L 259.446186 170.597231 
L 259.252013 169.562731 
L 258.827805 168.51749 
L 258.160918 167.475258 
L 257.216463 166.427108 
L 256.00277 165.417495 
L 254.482925 164.445181 
L 252.646957 163.537968 
L 250.494317 162.726785 
L 248.086115 162.056754 
L 245.403205 161.543693 
L 242.538058 161.225818 
L 239.602746 161.12331 
L 236.661793 161.239957 
L 233.780746 161.574675 
L 231.075126 162.109175 
L 228.595861 162.821627 
L 226.42609 163.668685 
L 224.544506 164.637522 
L 223.001569 165.678692 
L 221.789676 166.761288 
L 220.891997 167.857935 
L 220.28468 168.945168 
L 219.932923 170.03164 
L 219.822568 171.102353 
L 219.936521 172.144238 
L 220.279186 173.20132 
L 220.863828 174.25972 
L 221.700343 175.30394 
L 222.824128 176.340923 
L 224.252767 177.346562 
L 225.996219 178.293504 
L 228.054913 179.151644 
L 230.417892 179.888879 
L 233.008879 180.462738 
L 235.837659 180.857771 
L 238.799016 181.042362 
L 241.77434 181.004885 
L 244.698086 180.748084 
L 247.506937 180.279398 
L 250.094205 179.624774 
L 252.41855 178.809624 
L 254.411676 177.88047 
L 256.069114 176.871023 
L 257.397304 175.811941 
L 258.411341 174.730344 
L 259.132879 173.649582 
L 259.596682 172.5624 
L 259.815075 171.483769 
L 259.80315 170.426909 
L 259.569382 169.376506 
L 259.101762 168.31784 
L 258.388336 167.264915 
L 257.394414 166.209434 
L 256.129984 165.195625 
L 254.558733 164.222768 
L 252.672054 163.318653 
L 250.470769 162.514045 
L 247.96725 161.842055 
L 245.240319 161.344699 
L 242.336953 161.044573 
L 239.369128 160.960902 
L 236.401193 161.097056 
L 233.498407 161.451578 
L 230.775241 162.005721 
L 228.282162 162.737615 
L 226.101305 163.603904 
L 224.247711 164.57048 
L 222.723826 165.605133 
L 221.521478 166.678441 
L 220.623952 167.764358 
L 219.995711 168.867865 
L 219.63305 169.944129 
L 219.504103 171.0054 
L 219.597881 172.06712 
L 219.912959 173.117434 
L 220.462217 174.171288 
L 221.255861 175.21408 
L 222.328684 176.253801 
L 223.699054 177.26766 
L 225.378409 178.229676 
L 227.369442 179.1111 
L 229.664321 179.881069 
L 232.243068 180.507506 
L 235.018761 180.951815 
L 237.939932 181.195242 
L 240.947537 181.222673 
L 243.92256 181.02893 
L 246.8012 180.620065 
L 249.475009 180.019466 
L 251.900313 179.251446 
L 254.043446 178.341754 
L 255.847021 177.337973 
L 257.313218 176.27211 
L 258.453734 175.172843 
L 259.287653 174.065189 
L 259.839501 172.970378 
L 260.142093 171.879119 
L 260.20938 170.805062 
L 260.050904 169.733468 
L 259.668349 168.675968 
L 259.047862 167.618685 
L 258.15611 166.551932 
L 256.999263 165.518867 
L 255.541343 164.516976 
L 253.770859 163.57243 
L 251.684731 162.714464 
L 249.290308 161.97488 
L 246.658607 161.396396 
L 243.830625 161.00187 
L 240.856814 160.811917 
L 237.851436 160.841347 
L 234.879205 161.091098 
L 232.056019 161.546899 
L 229.435196 162.189147 
L 227.061258 162.995267 
L 225.007999 163.920689 
L 223.284826 164.932363 
L 221.889605 165.99948 
L 220.810617 167.094221 
L 220.028579 168.192227 
L 219.508826 169.300177 
L 219.2438 170.374506 
L 219.205308 171.456478 
L 219.393481 172.53396 
L 219.805784 173.594917 
L 220.456067 174.653566 
L 221.377633 175.719668 
L 222.591658 176.77211 
L 224.113304 177.786485 
L 225.949961 178.735413 
L 228.099476 179.589064 
L 230.548475 180.315923 
L 233.219144 180.875069 
L 236.119618 181.251335 
L 239.090339 181.413848 
L 242.122834 181.358128 
L 245.098737 181.08235 
L 247.955521 180.594201 
L 250.588197 179.919601 
L 252.914192 179.100593 
L 254.954138 178.151767 
L 256.656712 177.120269 
L 258.027276 176.036468 
L 259.079736 174.927384 
L 259.834555 173.816437 
L 260.316954 172.723382 
L 260.558494 171.637784 
L 260.573401 170.572349 
L 260.370185 169.511764 
L 259.937664 168.441152 
L 259.263914 167.373789 
L 258.315652 166.300668 
L 257.100936 165.26476 
L 255.584277 164.26415 
L 253.755654 163.325082 
L 251.613524 162.476712 
L 249.166768 161.750591 
L 246.487717 161.188522 
L 243.618168 160.812875 
L 240.609167 160.643708 
L 237.574823 160.694873 
L 234.579681 160.966871 
L 231.738703 161.444826 
L 229.104727 162.108999 
L 226.721874 162.936728 
L 224.662931 163.883364 
L 222.937133 164.915978 
L 221.542312 166.003854 
L 220.466805 167.119218 
L 219.691424 168.237714 
L 219.191369 169.338643 
L 218.934375 170.43249 
L 218.905997 171.505937 
L 219.097033 172.57468 
L 219.518321 173.654028 
L 220.181471 174.730239 
L 221.119329 175.81267 
L 222.322474 176.857185 
L 223.825076 177.866256 
L 225.635047 178.813725 
L 227.751412 179.671041 
L 230.162717 180.407947 
L 232.845611 180.993381 
L 235.710732 181.39127 
L 238.7054 181.58429 
L 241.76996 181.55884 
L 244.786692 181.311995 
L 247.692922 180.850792 
L 250.383045 180.199853 
L 252.814952 179.383667 
L 254.919089 178.447016 
L 256.688357 177.422896 
L 258.126341 176.341631 
L 259.24527 175.230359 
L 260.06408 174.112764 
L 260.606659 173.008975 
L 260.904684 171.909284 
L 260.971615 170.826728 
L 260.816633 169.746496 
L 260.441302 168.679738 
L 259.832237 167.612451 
L 258.957244 166.534557 
L 257.793961 165.465488 
L 256.324777 164.428003 
L 254.538486 163.448095 
L 252.4321 162.554723 
L 250.059456 161.792184 
L 247.399553 161.174086 
L 244.535093 160.739236 
L 241.515332 160.508456 
L 238.452371 160.49771 
L 235.410263 160.708842 
L 232.504317 161.129576 
L 229.788857 161.741578 
L 227.309946 162.523417 
L 225.144129 163.432506 
L 223.304111 164.436412 
L 221.791134 165.504547 
L 220.596753 166.608945 
L 219.704684 167.724779 
L 219.080987 168.857371 
L 218.721954 169.963088 
L 218.597261 171.053997 
L 218.6965 172.145118 
L 219.018251 173.224782 
L 219.574861 174.307525 
L 220.375988 175.379105 
L 221.454916 176.447552 
L 222.829205 177.490995 
L 224.509977 178.48461 
L 224.698522 178.581937 
L 224.698522 178.581937 
" style="fill:none;stroke:#00ffff;stroke-linecap:square;stroke-width:1.5;"/>
   </g>
   <g id="line2d_21">
    <path clip-path="url(#p20ee0e1199)" d="M 270.505636 179.748965 
L 271.93386 178.302967 
L 273.053214 176.860456 
L 273.897087 175.41802 
L 274.481009 173.988932 
L 274.825669 172.564058 
L 274.939971 171.15324 
L 274.830963 169.744815 
L 274.500454 168.347573 
L 273.941936 166.95008 
L 273.137523 165.542649 
L 272.074418 164.137574 
L 270.742063 162.748446 
L 269.110117 161.37294 
L 267.164759 160.030405 
L 264.896569 158.742207 
L 262.332559 157.544719 
L 259.448569 156.446237 
L 256.288596 155.481989 
L 252.874009 154.672475 
L 249.232256 154.037761 
L 245.397078 153.597065 
L 241.449126 153.369491 
L 237.475515 153.363169 
L 233.524561 153.57806 
L 229.644303 154.011608 
L 225.919673 154.651101 
L 222.42691 155.473265 
L 219.16195 156.468694 
L 216.217611 157.594656 
L 213.574999 158.839288 
L 211.270512 160.165244 
L 209.300431 161.548338 
L 207.636536 162.984502 
L 206.29035 164.43696 
L 205.244155 165.887242 
L 204.468169 167.339287 
L 203.949103 168.780188 
L 203.671722 170.198439 
L 203.62011 171.604657 
L 203.789977 173.010612 
L 204.181288 174.407544 
L 204.803228 175.806774 
L 205.676508 177.217791 
L 206.815978 178.627863 
L 208.234247 180.022673 
L 209.941123 181.386351 
L 211.9699 182.717619 
L 214.302007 183.979086 
L 216.967263 185.163579 
L 219.929644 186.233315 
L 223.173743 187.166085 
L 226.677352 187.939634 
L 230.37025 188.526898 
L 234.212747 188.914 
L 238.160732 189.089201 
L 242.166124 189.04326 
L 246.094607 188.777786 
L 249.939327 188.297006 
L 253.613857 187.615705 
L 257.078631 186.749119 
L 260.265047 185.726478 
L 263.152268 184.571097 
L 265.726456 183.306085 
L 267.980204 181.953901 
L 269.889988 180.553817 
L 271.487982 179.109975 
L 272.767065 177.659902 
L 273.760688 176.201739 
L 274.483134 174.74978 
L 274.950821 173.316631 
L 275.183501 171.892546 
L 275.190707 170.486915 
L 274.973752 169.067302 
L 274.533405 167.663267 
L 273.851201 166.243959 
L 272.927888 164.840352 
L 271.726187 163.426418 
L 270.248134 162.036274 
L 268.463682 160.668876 
L 266.361133 159.344431 
L 263.963151 158.099003 
L 261.244038 156.939353 
L 258.208241 155.890231 
L 254.903858 154.986248 
L 251.355367 154.247804 
L 247.593432 153.69466 
L 243.695197 153.347928 
L 239.704956 153.217946 
L 235.710536 153.310726 
L 231.7604 153.625105 
L 227.940878 154.150955 
L 224.294137 154.875868 
L 220.893086 155.775204 
L 217.764582 156.82784 
L 214.929194 158.012317 
L 212.42848 159.291967 
L 210.238374 160.658469 
L 208.382993 162.074382 
L 206.851347 163.518055 
L 205.628076 164.969974 
L 204.683365 166.432626 
L 204.013105 167.872028 
L 203.584737 169.315863 
L 203.393469 170.733336 
L 203.426276 172.156067 
L 203.684006 173.575175 
L 204.166088 174.981722 
L 204.882346 176.386636 
L 205.853984 177.798834 
L 207.094956 179.20517 
L 208.616827 180.590943 
L 210.453006 181.95672 
L 212.589847 183.26572 
L 215.058538 184.512697 
L 217.829046 185.659935 
L 220.890351 186.685763 
L 224.225083 187.568171 
L 227.809052 188.285258 
L 231.569858 188.811212 
L 235.466439 189.132868 
L 239.45348 189.239302 
L 243.440116 189.12457 
L 247.376528 188.790225 
L 251.173943 188.247601 
L 254.790061 187.510331 
L 258.187392 186.593987 
L 261.300222 185.528422 
L 264.109829 184.336788 
L 266.60427 183.041907 
L 268.77779 181.665856 
L 270.609245 180.247647 
L 272.113411 178.809462 
L 273.323557 177.351369 
L 274.251882 175.888827 
L 274.913134 174.43564 
L 275.324038 173.003937 
L 275.503779 171.583597 
L 275.459865 170.163131 
L 275.19371 168.751306 
L 274.699448 167.336704 
L 273.971766 165.929079 
L 272.99204 164.519685 
L 271.731015 163.10314 
L 270.192 161.713582 
L 268.345203 160.350405 
L 266.17987 159.033999 
L 263.690101 157.786614 
L 260.90821 156.644173 
L 257.812602 155.61638 
L 254.452779 154.737363 
L 250.854207 154.027306 
L 247.048511 153.505682 
L 243.113658 153.192868 
L 239.134776 153.098635 
L 235.119161 153.226303 
L 231.19472 153.571797 
L 227.367853 154.131339 
L 223.756941 154.881088 
L 220.359505 155.811454 
L 217.24012 156.894418 
L 214.448371 158.094377 
L 211.963456 159.400899 
L 209.816893 160.776718 
L 208.002248 162.198702 
L 206.50802 163.645695 
L 205.31852 165.098661 
L 204.404149 166.560511 
L 203.752998 168.017804 
L 203.351032 169.458454 
L 203.181686 170.892286 
L 203.237396 172.309981 
L 203.514841 173.723281 
L 204.022189 175.143616 
L 204.766971 176.561107 
L 205.770422 177.984355 
L 207.046204 179.39999 
L 208.605515 180.793104 
L 210.481524 182.163905 
L 212.65983 183.475579 
L 215.171179 184.722559 
L 217.984685 185.867191 
L 221.088625 186.887751 
L 224.464895 187.762227 
L 228.08855 188.468774 
L 231.886498 188.981891 
L 235.817082 189.288574 
L 239.834435 189.378107 
L 243.847383 189.244964 
L 247.8058 188.890942 
L 251.620925 188.327783 
L 255.250377 187.569344 
L 258.656626 186.631417 
L 261.774302 185.544172 
L 264.58479 184.330917 
L 267.049161 183.03043 
L 269.195321 181.651522 
L 271.002926 180.232759 
L 272.504332 178.777004 
L 273.694648 177.320908 
L 274.606805 175.861548 
L 275.255529 174.41238 
L 275.661534 172.964752 
L 275.833221 171.528694 
L 275.780398 170.113404 
L 275.503019 168.686676 
L 274.994371 167.257866 
L 274.249286 165.836889 
L 273.249232 164.415251 
L 271.98334 163.005993 
L 270.421949 161.606092 
L 268.550616 160.234079 
L 267.13431 159.350073 
L 267.13431 159.350073 
" style="fill:none;stroke:#ff7f50;stroke-linecap:square;stroke-width:1.5;"/>
   </g>
   <g id="line2d_22">
    <path clip-path="url(#p20ee0e1199)" d="M 282.586531 183.239809 
L 284.250845 181.556125 
L 285.627355 179.851136 
L 286.715159 178.154682 
L 287.539399 176.461789 
L 288.112091 174.782732 
L 288.448769 173.10907 
L 288.556448 171.448953 
L 288.440703 169.79239 
L 288.103381 168.146849 
L 287.540224 166.502478 
L 286.73872 164.850516 
L 285.690035 163.200537 
L 284.372722 161.546892 
L 282.774198 159.902354 
L 280.884001 158.28091 
L 278.694161 156.697703 
L 276.176647 155.156017 
L 273.348532 153.688034 
L 270.21201 152.312127 
L 266.773385 151.047357 
L 263.043437 149.913281 
L 259.037767 148.92973 
L 254.809667 148.121923 
L 250.38781 147.50477 
L 245.838792 147.094475 
L 241.200011 146.898941 
L 236.510945 146.9245 
L 231.846797 147.173159 
L 227.281872 147.638665 
L 222.854062 148.312541 
L 218.630032 149.177611 
L 214.638495 150.218387 
L 210.904097 151.418682 
L 207.473778 152.750649 
L 204.358307 154.193981 
L 201.563806 155.728911 
L 199.092125 157.336411 
L 196.958963 158.9834 
L 195.136419 160.666414 
L 193.615833 162.369848 
L 192.385972 164.079324 
L 191.433421 165.781742 
L 190.742964 167.465313 
L 190.294444 169.137067 
L 190.075948 170.80578 
L 190.082665 172.463526 
L 190.312357 174.120334 
L 190.76525 175.768648 
L 191.448906 177.418119 
L 192.379306 179.077193 
L 193.567599 180.735712 
L 195.023466 182.382515 
L 196.772821 184.020902 
L 198.828563 185.63565 
L 201.178127 187.196095 
L 203.84655 188.699779 
L 206.837023 190.127442 
L 210.14831 191.458624 
L 213.743303 192.662514 
L 217.637768 193.729181 
L 221.780609 194.630002 
L 226.109928 195.342777 
L 230.626991 195.85928 
L 235.223501 196.161583 
L 239.894101 196.246563 
L 244.560137 196.110198 
L 249.178673 195.753879 
L 253.672675 195.186439 
L 258.004284 194.418367 
L 262.138883 193.461769 
L 266.014944 192.339876 
L 269.610706 191.071226 
L 272.909341 189.674574 
L 275.874505 188.181892 
L 278.527374 186.600135 
L 280.845104 184.96178 
L 282.835349 183.285621 
L 284.509181 181.588874 
L 285.88048 179.887111 
L 286.974974 178.177136 
L 287.796042 176.487784 
L 288.367685 174.812431 
L 288.705362 173.14254 
L 288.816026 171.486139 
L 288.705233 169.833158 
L 288.370101 168.173567 
L 287.80645 166.515286 
L 287.001858 164.849705 
L 285.947542 163.186516 
L 284.636189 161.536141 
L 283.045876 159.894353 
L 281.166142 158.274949 
L 278.968265 156.679026 
L 276.463531 155.138242 
L 273.6254 153.65797 
L 270.476902 152.270509 
L 267.024495 150.994997 
L 263.279124 149.851054 
L 259.287917 148.865442 
L 255.042647 148.048213 
L 250.635464 147.426478 
L 246.067035 147.007204 
L 241.4074 146.803762 
L 236.730339 146.821591 
L 232.076442 147.060509 
L 227.486138 147.518593 
L 223.03172 148.186494 
L 218.780131 149.047165 
L 214.760438 150.085153 
L 210.99764 151.284282 
L 207.539041 152.616779 
L 204.395792 154.062306 
L 201.574372 155.601043 
L 199.076975 157.213891 
L 196.91966 158.867747 
L 195.074774 160.55897 
L 193.546987 162.255703 
L 192.307439 163.958641 
L 191.342891 165.654839 
L 190.632334 167.349897 
L 190.166374 169.034044 
L 189.934343 170.698302 
L 189.925559 172.352116 
L 190.137717 174.005589 
L 190.576924 175.668729 
L 191.249569 177.333437 
L 192.160933 178.991107 
L 193.32803 180.649197 
L 194.760623 182.296734 
L 196.484515 183.937242 
L 198.512767 185.555748 
L 200.855768 187.135733 
L 203.520661 188.659199 
L 206.483933 190.094835 
L 209.767279 191.436366 
L 213.365017 192.662578 
L 217.233729 193.743451 
L 221.352073 194.661159 
L 225.693825 195.398425 
L 230.192277 195.935493 
L 234.809832 196.26231 
L 239.506077 196.370662 
L 244.202155 196.256118 
L 248.854743 195.919856 
L 253.386342 195.370347 
L 257.758534 194.61793 
L 261.936124 193.674602 
L 265.856881 192.563367 
L 269.498387 191.30275 
L 272.843188 189.911538 
L 275.854168 188.421638 
L 278.530011 186.854343 
L 280.874043 185.229689 
L 280.874043 185.229689 
" style="fill:none;stroke:#00bfff;stroke-linecap:square;stroke-width:1.5;"/>
   </g>
   <g id="line2d_23">
    <path clip-path="url(#p20ee0e1199)" d="M 305.733676 189.925364 
L 307.760709 187.841049 
L 309.481114 185.7577 
L 310.918739 183.673137 
L 312.09205 181.583162 
L 313.003229 179.510432 
L 313.669311 177.448849 
L 314.101633 175.391236 
L 314.305232 173.344115 
L 314.284861 171.299391 
L 314.042141 169.263139 
L 313.575323 167.227248 
L 312.877175 165.18414 
L 311.942157 163.140875 
L 310.756956 161.091417 
L 309.313223 159.044401 
L 307.603689 157.009042 
L 305.609159 154.982732 
L 303.320507 152.977138 
L 300.730259 151.004734 
L 297.815362 149.067918 
L 294.58702 147.192745 
L 291.044164 145.394012 
L 287.188268 143.687107 
L 283.023558 142.087931 
L 278.557217 140.612796 
L 273.824089 139.284618 
L 268.840397 138.117404 
L 263.625171 137.124956 
L 258.226937 136.324156 
L 252.67187 135.724943 
L 247.015593 135.337855 
L 241.288896 135.168083 
L 235.52369 135.219817 
L 229.807417 135.492524 
L 224.145025 135.984798 
L 218.621659 136.686618 
L 213.239783 137.593553 
L 208.052925 138.692541 
L 203.109711 139.965903 
L 198.429423 141.399494 
L 194.050491 142.970409 
L 189.962129 144.671069 
L 186.194506 146.477061 
L 182.75161 148.372055 
L 179.651267 150.32894 
L 176.872312 152.342697 
L 174.424403 154.386637 
L 172.284509 156.458622 
L 170.444381 158.546026 
L 168.894074 160.637064 
L 167.622159 162.720826 
L 166.609973 164.801277 
L 165.848419 166.869836 
L 165.324623 168.932845 
L 165.032394 170.98326 
L 164.965081 173.028849 
L 165.119706 175.06337 
L 165.496049 177.095133 
L 166.099503 179.132294 
L 166.934467 181.168265 
L 168.012834 183.210143 
L 169.342243 185.250062 
L 170.940878 187.293061 
L 172.819232 189.329135 
L 174.986531 191.347403 
L 177.450496 193.336126 
L 180.23496 195.294479 
L 183.32909 197.196176 
L 186.755324 199.037437 
L 190.494588 200.791387 
L 194.542778 202.442361 
L 198.892653 203.974277 
L 203.533593 205.370788 
L 208.424319 206.609215 
L 213.572185 207.681512 
L 218.898418 208.563499 
L 224.403544 209.24952 
L 230.028501 209.726697 
L 235.740471 209.988657 
L 241.505161 210.030413 
L 247.257348 209.849961 
L 252.961608 209.448765 
L 258.554126 208.83356 
L 264.002749 208.012048 
L 269.277332 206.993135 
L 274.32357 205.793678 
L 279.119199 204.427426 
L 283.645125 202.908593 
L 287.862756 201.261193 
L 291.763463 199.502117 
L 295.341991 197.647842 
L 298.596186 195.71429 
L 301.526717 193.716716 
L 304.121877 191.682178 
L 306.405315 189.612602 
L 308.372852 187.533911 
L 310.048509 185.445048 
L 311.442766 183.35661 
L 312.56724 181.278274 
L 313.439601 179.204644 
L 314.068359 177.14334 
L 314.464693 175.08709 
L 314.544898 174.415041 
L 314.544898 174.415041 
" style="fill:none;stroke:#ff6347;stroke-linecap:square;stroke-width:1.5;"/>
   </g>
   <g id="text_21">
    <text style="font-family:DejaVu Sans;font-size:12px;font-stretch:normal;font-style:normal;font-weight:normal;text-anchor:middle;" transform="rotate(-0, 236.16, 35.472)" x="236.16" y="35.472">N-body simulation tracks</text>
   </g>
   <g id="legend_1">
    <g id="patch_6">
     <path d="M 289.683187 122.862625 
L 362.216 122.862625 
Q 364.216 122.862625 364.216 120.862625 
L 364.216 48.472 
Q 364.216 46.472 362.216 46.472 
L 289.683187 46.472 
Q 287.683187 46.472 287.683187 48.472 
L 287.683187 120.862625 
Q 287.683187 122.862625 289.683187 122.862625 
z
" style="fill:#ffffff;opacity:0.8;stroke:#cccccc;stroke-linejoin:miter;"/>
    </g>
    <g id="line2d_24">
     <path d="M 291.683187 54.570438 
L 311.683187 54.570438 
" style="fill:none;stroke:#ff0000;stroke-linecap:square;stroke-width:1.5;"/>
    </g>
    <g id="line2d_25"/>
    <g id="text_22">
     <text style="font-family:DejaVu Sans;font-size:10px;font-stretch:normal;font-style:normal;font-weight:normal;text-anchor:start;" transform="rotate(-0, 319.683187, 58.070438)" x="319.683187" y="58.070438">Sun</text>
    </g>
    <g id="line2d_26">
     <path d="M 291.683187 69.248563 
L 311.683187 69.248563 
" style="fill:none;stroke:#00ffff;stroke-linecap:square;stroke-width:1.5;"/>
    </g>
    <g id="line2d_27"/>
    <g id="text_23">
     <text style="font-family:DejaVu Sans;font-size:10px;font-stretch:normal;font-style:normal;font-weight:normal;text-anchor:start;" transform="rotate(-0, 319.683187, 72.748563)" x="319.683187" y="72.748563">Mercury</text>
    </g>
    <g id="line2d_28">
     <path d="M 291.683187 83.926688 
L 311.683187 83.926688 
" style="fill:none;stroke:#ff7f50;stroke-linecap:square;stroke-width:1.5;"/>
    </g>
    <g id="line2d_29"/>
    <g id="text_24">
     <text style="font-family:DejaVu Sans;font-size:10px;font-stretch:normal;font-style:normal;font-weight:normal;text-anchor:start;" transform="rotate(-0, 319.683187, 87.426688)" x="319.683187" y="87.426688">Venus</text>
    </g>
    <g id="line2d_30">
     <path d="M 291.683187 98.604813 
L 311.683187 98.604813 
" style="fill:none;stroke:#00bfff;stroke-linecap:square;stroke-width:1.5;"/>
    </g>
    <g id="line2d_31"/>
    <g id="text_25">
     <text style="font-family:DejaVu Sans;font-size:10px;font-stretch:normal;font-style:normal;font-weight:normal;text-anchor:start;" transform="rotate(-0, 319.683187, 102.104813)" x="319.683187" y="102.104813">Earth</text>
    </g>
    <g id="line2d_32">
     <path d="M 291.683187 113.282938 
L 311.683187 113.282938 
" style="fill:none;stroke:#ff6347;stroke-linecap:square;stroke-width:1.5;"/>
    </g>
    <g id="line2d_33"/>
    <g id="text_26">
     <text style="font-family:DejaVu Sans;font-size:10px;font-stretch:normal;font-style:normal;font-weight:normal;text-anchor:start;" transform="rotate(-0, 319.683187, 116.782938)" x="319.683187" y="116.782938">Mars</text>
    </g>
   </g>
  </g>
 </g>
 <defs>
  <clipPath id="p20ee0e1199">
   <rect height="266.112" width="266.112" x="103.104" y="41.472"/>
  </clipPath>
 </defs>
</svg>
